{
  "accessors": [
    {
      "bufferView": 2,
      "componentType": 5126,
      "count": 32,
      "max": [
        58.204410552978516,
        36.0,
        58.20440673828125
      ],
      "min": [
        -58.204402923583984,
        0.0,
        -58.204402923583984
      ],
      "type": "VEC3"
    },
    {
      "bufferView": 2,
      "byteOffset": 384,
      "componentType": 5126,
      "count": 32,
      "max": [
        1.0,
        0.0,
        1.0
      ],
      "min": [
        -1.0,
        0.0,
        -1.0
      ],
      "type": "VEC3"
    },
    {
      "bufferView": 1,
      "componentType": 5126,
      "count": 32,
      "max": [
        0.98828125,
        0.10265898704528809
      ],
      "min": [
        0.01171875,
        0.01171875
      ],
      "type": "VEC2"
    },
    {
      "bufferView": 0,
      "componentType": 5125,
      "count": 48,
      "type": "SCALAR"
    },
    {
      "bufferView": 2,
      "byteOffset": 768,
      "componentType": 5126,
      "count": 80,
      "max": [
        55.20397186279297,
        36.0,
        55.2039680480957
      ],
      "min": [
        -55.20396423339844,
        32.64885330200195,
        -55.2039680480957
      ],
      "type": "VEC3"
    },
    {
      "bufferView": 2,
      "byteOffset": 1728,
      "componentType": 5126,
      "count": 80,
      "max": [
        1.0,
        0.0,
        1.0
      ],
      "min": [
        -1.0,
        -1.0,
        -1.0
      ],
      "type": "VEC3"
    },
    {
      "bufferView": 1,
      "byteOffset": 256,
      "componentType": 5126,
      "count": 80,
      "max": [
        0.9787905812263489,
        0.5341441035270691
      ],
      "min": [
        0.01171875,
        0.11195572465658188
      ],
      "type": "VEC2"
    },
    {
      "bufferView": 0,
      "byteOffset": 192,
      "componentType": 5125,
      "count": 144,
      "type": "SCALAR"
    },
    {
      "bufferView": 2,
      "byteOffset": 2688,
      "componentType": 5126,
      "count": 32,
      "max": [
        25.591876983642578,
        37.684444427490234,
        25.591875076293945
      ],
      "min": [
        -25.591869354248047,
        36.0,
        -25.59187126159668
      ],
      "type": "VEC3"
    },
    {
      "bufferView": 2,
      "byteOffset": 3072,
      "componentType": 5126,
      "count": 32,
      "max": [
        1.0,
        0.0,
        1.0
      ],
      "min": [
        -1.0,
        0.0,
        -1.0
      ],
      "type": "VEC3"
    },
    {
      "bufferView": 1,
      "byteOffset": 896,
      "componentType": 5126,
      "count": 32,
      "max": [
        0.8663893938064575,
        0.49702882766723633
      ],
      "min": [
        0.5008597373962402,
        0.49170562624931335
      ],
      "type": "VEC2"
    },
    {
      "bufferView": 0,
      "byteOffset": 768,
      "componentType": 5125,
      "count": 48,
      "type": "SCALAR"
    },
    {
      "bufferView": 2,
      "byteOffset": 3456,
      "componentType": 5126,
      "count": 41,
      "max": [
        7.229283809661865,
        11.034869194030762,
        7.229286193847656
      ],
      "min": [
        -7.229287624359131,
        11.034869194030762,
        -7.229282379150391
      ],
      "type": "VEC3"
    },
    {
      "bufferView": 2,
      "byteOffset": 3948,
      "componentType": 5126,
      "count": 41,
      "max": [
        0.0,
        1.0,
        1.9818442353880528e-07
      ],
      "min": [
        0.0,
        1.0,
        -1.981844519605147e-07
      ],
      "type": "VEC3"
    },
    {
      "bufferView": 1,
      "byteOffset": 1152,
      "componentType": 5126,
      "count": 41,
      "max": [
        0.04822561517357826,
        0.14842262864112854
      ],
      "min": [
        0.01171875,
        0.11191576719284058
      ],
      "type": "VEC2"
    },
    {
      "bufferView": 0,
      "byteOffset": 960,
      "componentType": 5125,
      "count": 120,
      "type": "SCALAR"
    },
    {
      "bufferView": 2,
      "byteOffset": 4440,
      "componentType": 5126,
      "count": 9,
      "max": [
        58.204410552978516,
        0.0,
        58.20440673828125
      ],
      "min": [
        -58.204402923583984,
        0.0,
        -58.204402923583984
      ],
      "type": "VEC3"
    },
    {
      "bufferView": 2,
      "byteOffset": 4548,
      "componentType": 5126,
      "count": 9,
      "max": [
        0.0,
        1.0,
        0.0
      ],
      "min": [
        0.0,
        1.0,
        0.0
      ],
      "type": "VEC3"
    },
    {
      "bufferView": 1,
      "byteOffset": 1480,
      "componentType": 5126,
      "count": 9,
      "max": [
        0.30564287304878235,
        0.40585529804229736
      ],
      "min": [
        0.01171875,
        0.11193128675222397
      ],
      "type": "VEC2"
    },
    {
      "bufferView": 0,
      "byteOffset": 1440,
      "componentType": 5125,
      "count": 24,
      "type": "SCALAR"
    },
    {
      "bufferView": 2,
      "byteOffset": 4656,
      "componentType": 5126,
      "count": 82,
      "max": [
        7.229283809661865,
        11.034869194030762,
        7.229286193847656
      ],
      "min": [
        -7.229287624359131,
        4.76837158203125e-07,
        -7.229282379150391
      ],
      "type": "VEC3"
    },
    {
      "bufferView": 2,
      "byteOffset": 5640,
      "componentType": 5126,
      "count": 82,
      "max": [
        1.0,
        0.0,
        1.0
      ],
      "min": [
        -1.0,
        0.0,
        -1.0
      ],
      "type": "VEC3"
    },
    {
      "bufferView": 1,
      "byteOffset": 1552,
      "componentType": 5126,
      "count": 82,
      "max": [
        0.9607200622558594,
        0.13982117176055908
      ],
      "min": [
        0.8625138998031616,
        0.11195607483386993
      ],
      "type": "VEC2"
    },
    {
      "bufferView": 0,
      "byteOffset": 1536,
      "componentType": 5125,
      "count": 240,
      "type": "SCALAR"
    },
    {
      "bufferView": 2,
      "byteOffset": 6624,
      "componentType": 5126,
      "count": 28,
      "max": [
        58.204410552978516,
        36.0,
        58.20440673828125
      ],
      "min": [
        -58.204402923583984,
        36.0,
        -58.204402923583984
      ],
      "type": "VEC3"
    },
    {
      "bufferView": 2,
      "byteOffset": 6960,
      "componentType": 5126,
      "count": 28,
      "max": [
        0.0,
        -1.0,
        5.391956747757831e-08
      ],
      "min": [
        0.0,
        -1.0,
        -1.078391562714387e-07
      ],
      "type": "VEC3"
    },
    {
      "bufferView": 1,
      "byteOffset": 2208,
      "componentType": 5126,
      "count": 28,
      "max": [
        0.609038770198822,
        0.4058731496334076
      ],
      "min": [
        0.3151147961616516,
        0.11194910854101181
      ],
      "type": "VEC2"
    },
    {
      "bufferView": 0,
      "byteOffset": 2496,
      "componentType": 5125,
      "count": 48,
      "type": "SCALAR"
    },
    {
      "bufferView": 2,
      "byteOffset": 7296,
      "componentType": 5126,
      "count": 160,
      "max": [
        57.93122482299805,
        34.487022399902344,
        57.93122482299805
      ],
      "min": [
        -57.93122482299805,
        1.5129773616790771,
        -57.93122482299805
      ],
      "type": "VEC3"
    },
    {
      "bufferView": 2,
      "byteOffset": 9216,
      "componentType": 5126,
      "count": 160,
      "max": [
        1.0,
        1.0,
        1.0
      ],
      "min": [
        -1.0,
        -1.0,
        -1.0
      ],
      "type": "VEC3"
    },
    {
      "bufferView": 1,
      "byteOffset": 2432,
      "componentType": 5126,
      "count": 160,
      "max": [
        0.9865521788597107,
        0.6266984343528748
      ],
      "min": [
        0.01171875,
        0.1119406595826149
      ],
      "type": "VEC2"
    },
    {
      "bufferView": 0,
      "byteOffset": 2688,
      "componentType": 5125,
      "count": 240,
      "type": "SCALAR"
    }
  ],
  "asset": {
    "extras": {
      "author": "BehNaM (https://sketchfab.com/GbehnamG)",
      "license": "SKETCHFAB Standard (https://sketchfab.com/licenses)",
      "source": "https://sketchfab.com/3d-models/art-gallery-for-product-showcase-vr-2021-58040bf948fa4784af008304e5eaf4bf",
      "title": "Art Gallery for Product Showcase VR 2021"
    },
    "generator": "Sketchfab-12.66.0",
    "version": "2.0"
  },
  "bufferViews": [
    {
      "buffer": 0,
      "byteLength": 3648,
      "name": "floatBufferViews",
      "target": 34963
    },
    {
      "buffer": 0,
      "byteLength": 3712,
      "byteOffset": 3648,
      "byteStride": 8,
      "name": "floatBufferViews",
      "target": 34962
    },
    {
      "buffer": 0,
      "byteLength": 11136,
      "byteOffset": 7360,
      "byteStride": 12,
      "name": "floatBufferViews",
      "target": 34962
    }
  ],
  "buffers": [
    {
      "byteLength": 18496,
      "uri": "scene.bin"
    }
  ],
  "extensionsRequired": [
    "KHR_materials_pbrSpecularGlossiness"
  ],
  "extensionsUsed": [
    "KHR_materials_pbrSpecularGlossiness"
  ],
  "images": [
    {
      "uri": "textures/lambert86_specularGlossiness.jpeg"
    },
    {
      "uri": "textures/lambert86_occlusion.png"
    }
  ],
  "materials": [
    {
      "emissiveFactor": [
        0.4584524487937136,
        0.4584524487937136,
        0.4584524487937136
      ],
      "extensions": {
        "KHR_materials_pbrSpecularGlossiness": {
          "diffuseFactor": [
            1.0,
            1.0,
            1.0,
            1.0
          ],
          "glossinessFactor": 0.9012211461023846,
          "specularFactor": [
            1.0,
            1.0,
            1.0
          ],
          "specularGlossinessTexture": {
            "index": 0
          }
        }
      },
      "name": "lambert86",
      "occlusionTexture": {
        "index": 1
      }
    },
    {
      "doubleSided": true,
      "emissiveFactor": [
        0.5190027722192985,
        0.5190027722192985,
        0.5190027722192985
      ],
      "extensions": {
        "KHR_materials_pbrSpecularGlossiness": {
          "diffuseFactor": [
            1.0,
            1.0,
            1.0,
            1.0
          ],
          "glossinessFactor": 0.15468978571588776,
          "specularFactor": [
            1.0,
            1.0,
            1.0
          ],
          "specularGlossinessTexture": {
            "index": 0
          }
        }
      },
      "name": "lambert82",
      "occlusionTexture": {
        "index": 1
      }
    },
    {
      "emissiveFactor": [
        0.5190027722192985,
        0.5190027722192985,
        0.5190027722192985
      ],
      "extensions": {
        "KHR_materials_pbrSpecularGlossiness": {
          "diffuseFactor": [
            1.0,
            1.0,
            1.0,
            1.0
          ],
          "glossinessFactor": 0.2700076381333141,
          "specularFactor": [
            1.0,
            1.0,
            1.0
          ],
          "specularGlossinessTexture": {
            "index": 0
          }
        }
      },
      "name": "lambert84",
      "occlusionTexture": {
        "index": 1
      }
    },
    {
      "doubleSided": true,
      "emissiveFactor": [
        0.34600184814619894,
        0.34600184814619894,
        0.34600184814619894
      ],
      "extensions": {
        "KHR_materials_pbrSpecularGlossiness": {
          "diffuseFactor": [
            1.0,
            1.0,
            1.0,
            1.0
          ],
          "glossinessFactor": 0.0,
          "specularFactor": [
            1.0,
            1.0,
            1.0
          ],
          "specularGlossinessTexture": {
            "index": 0
          }
        }
      },
      "name": "lambert79",
      "occlusionTexture": {
        "index": 1
      }
    },
    {
      "emissiveFactor": [
        0.08650046203654974,
        0.08650046203654974,
        0.08650046203654974
      ],
      "extensions": {
        "KHR_materials_pbrSpecularGlossiness": {
          "diffuseFactor": [
            1.0,
            1.0,
            1.0,
            1.0
          ],
          "glossinessFactor": 0.7009322445352757,
          "specularFactor": [
            1.0,
            1.0,
            1.0
          ],
          "specularGlossinessTexture": {
            "index": 0
          }
        }
      },
      "name": "lambert77",
      "occlusionTexture": {
        "index": 1
      }
    },
    {
      "doubleSided": true,
      "emissiveFactor": [
        0.43250231018274865,
        0.43250231018274865,
        0.43250231018274865
      ],
      "extensions": {
        "KHR_materials_pbrSpecularGlossiness": {
          "diffuseFactor": [
            1.0,
            1.0,
            1.0,
            1.0
          ],
          "glossinessFactor": 0.0,
          "specularFactor": [
            1.0,
            1.0,
            1.0
          ],
          "specularGlossinessTexture": {
            "index": 0
          }
        }
      },
      "name": "lambert78",
      "occlusionTexture": {
        "index": 1
      }
    },
    {
      "emissiveFactor": [
        0.5190027722192985,
        0.5190027722192985,
        0.5190027722192985
      ],
      "extensions": {
        "KHR_materials_pbrSpecularGlossiness": {
          "diffuseFactor": [
            1.0,
            1.0,
            1.0,
            1.0
          ],
          "glossinessFactor": 0.0,
          "specularFactor": [
            1.0,
            1.0,
            1.0
          ],
          "specularGlossinessTexture": {
            "index": 0
          }
        }
      },
      "name": "lambert83",
      "occlusionTexture": {
        "index": 1
      }
    },
    {
      "emissiveFactor": [
        0.43250231018274865,
        0.43250231018274865,
        0.43250231018274865
      ],
      "extensions": {
        "KHR_materials_pbrSpecularGlossiness": {
          "diffuseFactor": [
            1.0,
            1.0,
            1.0,
            1.0
          ],
          "glossinessFactor": 0.3307012446688016,
          "specularFactor": [
            1.0,
            1.0,
            1.0
          ],
          "specularGlossinessTexture": {
            "index": 0
          }
        }
      },
      "name": "lambert85",
      "occlusionTexture": {
        "index": 1
      }
    }
  ],
  "meshes": [
    {
      "name": "polySurface388_lambert86_0",
      "primitives": [
        {
          "attributes": {
            "NORMAL": 1,
            "POSITION": 0,
            "TEXCOORD_0": 2
          },
          "indices": 3,
          "material": 0,
          "mode": 4
        }
      ]
    },
    {
      "name": "polySurface389_lambert82_0",
      "primitives": [
        {
          "attributes": {
            "NORMAL": 5,
            "POSITION": 4,
            "TEXCOORD_0": 6
          },
          "indices": 7,
          "material": 1,
          "mode": 4
        }
      ]
    },
    {
      "name": "polySurface398_lambert84_0",
      "primitives": [
        {
          "attributes": {
            "NORMAL": 9,
            "POSITION": 8,
            "TEXCOORD_0": 10
          },
          "indices": 11,
          "material": 2,
          "mode": 4
        }
      ]
    },
    {
      "name": "polySurface399_lambert79_0",
      "primitives": [
        {
          "attributes": {
            "NORMAL": 13,
            "POSITION": 12,
            "TEXCOORD_0": 14
          },
          "indices": 15,
          "material": 3,
          "mode": 4
        }
      ]
    },
    {
      "name": "polySurface400_lambert77_0",
      "primitives": [
        {
          "attributes": {
            "NORMAL": 17,
            "POSITION": 16,
            "TEXCOORD_0": 18
          },
          "indices": 19,
          "material": 4,
          "mode": 4
        }
      ]
    },
    {
      "name": "polySurface401_lambert78_0",
      "primitives": [
        {
          "attributes": {
            "NORMAL": 21,
            "POSITION": 20,
            "TEXCOORD_0": 22
          },
          "indices": 23,
          "material": 5,
          "mode": 4
        }
      ]
    },
    {
      "name": "polySurface402_lambert83_0",
      "primitives": [
        {
          "attributes": {
            "NORMAL": 25,
            "POSITION": 24,
            "TEXCOORD_0": 26
          },
          "indices": 27,
          "material": 6,
          "mode": 4
        }
      ]
    },
    {
      "name": "polySurface391_lambert85_0",
      "primitives": [
        {
          "attributes": {
            "NORMAL": 29,
            "POSITION": 28,
            "TEXCOORD_0": 30
          },
          "indices": 31,
          "material": 7,
          "mode": 4
        }
      ]
    }
  ],
  "nodes": [
    {
      "children": [
        1
      ],
      "matrix": [
        0.10012669116258621,
        0.0,
        0.0,
        0.0,
        0.0,
        2.223259158164708e-17,
        -0.10012669116258621,
        0.0,
        0.0,
        0.10012669116258621,
        2.223259158164708e-17,
        0.0,
        0.0,
        0.0,
        0.0,
        1.0
      ],
      "name": "Sketchfab_model"
    },
    {
      "children": [
        2
      ],
      "matrix": [
        1.0,
        0.0,
        0.0,
        0.0,
        0.0,
        0.0,
        1.0,
        0.0,
        0.0,
        -1.0,
        0.0,
        0.0,
        0.0,
        0.0,
        0.0,
        1.0
      ],
      "name": "6c4660e05cf54d6f8ebdb8552641ad5e.fbx"
    },
    {
      "children": [
        3,
        18
      ],
      "name": "RootNode"
    },
    {
      "children": [
        4,
        6,
        8,
        10,
        12,
        14,
        16
      ],
      "name": "polySurface387"
    },
    {
      "children": [
        5
      ],
      "name": "polySurface388"
    },
    {
      "mesh": 0,
      "name": "polySurface388_lambert86_0"
    },
    {
      "children": [
        7
      ],
      "name": "polySurface389"
    },
    {
      "mesh": 1,
      "name": "polySurface389_lambert82_0"
    },
    {
      "children": [
        9
      ],
      "name": "polySurface398"
    },
    {
      "mesh": 2,
      "name": "polySurface398_lambert84_0"
    },
    {
      "children": [
        11
      ],
      "name": "polySurface399"
    },
    {
      "mesh": 3,
      "name": "polySurface399_lambert79_0"
    },
    {
      "children": [
        13
      ],
      "name": "polySurface400"
    },
    {
      "mesh": 4,
      "name": "polySurface400_lambert77_0"
    },
    {
      "children": [
        15
      ],
      "name": "polySurface401"
    },
    {
      "mesh": 5,
      "name": "polySurface401_lambert78_0"
    },
    {
      "children": [
        17
      ],
      "name": "polySurface402"
    },
    {
      "mesh": 6,
      "name": "polySurface402_lambert83_0"
    },
    {
      "children": [
        19
      ],
      "name": "polySurface391"
    },
    {
      "mesh": 7,
      "name": "polySurface391_lambert85_0"
    }
  ],
  "samplers": [
    {
      "magFilter": 9729,
      "minFilter": 9987,
      "wrapS": 10497,
      "wrapT": 10497
    }
  ],
  "scene": 0,
  "scenes": [
    {
      "name": "Sketchfab_Scene",
      "nodes": [
        0
      ]
    }
  ],
  "textures": [
    {
      "sampler": 0,
      "source": 0
    },
    {
      "sampler": 0,
      "source": 1
    }
  ]
}
