{
  "accessors": [
    {
      "bufferView": 2,
      "componentType": 5126,
      "count": 1886,
      "max": [
        7.528720378875732,
        7.65210485458374,
        5.411214828491211
      ],
      "min": [
        -7.528721809387207,
        -7.528720855712891,
        -1.1338496208190918
      ],
      "type": "VEC3"
    },
    {
      "bufferView": 2,
      "byteOffset": 22632,
      "componentType": 5126,
      "count": 1886,
      "max": [
        1.0,
        1.0,
        1.0
      ],
      "min": [
        -1.0,
        -1.0,
        -1.0
      ],
      "type": "VEC3"
    },
    {
      "bufferView": 1,
      "componentType": 5126,
      "count": 1886,
      "max": [
        0.9838176369667053,
        0.9941918849945068
      ],
      "min": [
        0.005804087966680527,
        0.0058031268417835236
      ],
      "type": "VEC2"
    },
    {
      "bufferView": 0,
      "componentType": 5125,
      "count": 4722,
      "type": "SCALAR"
    },
    {
      "bufferView": 2,
      "byteOffset": 45264,
      "componentType": 5126,
      "count": 132,
      "max": [
        7.528720378875732,
        7.528720855712891,
        4.516418933868408
      ],
      "min": [
        -7.528721809387207,
        -7.528720855712891,
        -0.6133579015731812
      ],
      "type": "VEC3"
    },
    {
      "bufferView": 2,
      "byteOffset": 46848,
      "componentType": 5126,
      "count": 132,
      "max": [
        0.705398440361023,
        0.7053982019424438,
        0.7088115811347961
      ],
      "min": [
        -0.7053983807563782,
        -0.7053981423377991,
        -0.7088115215301514
      ],
      "type": "VEC3"
    },
    {
      "bufferView": 1,
      "byteOffset": 15088,
      "componentType": 5126,
      "count": 132,
      "max": [
        0.9912874698638916,
        0.9881783723831177
      ],
      "min": [
        0.4657253324985504,
        0.005819767713546753
      ],
      "type": "VEC2"
    },
    {
      "bufferView": 0,
      "byteOffset": 18888,
      "componentType": 5125,
      "count": 384,
      "type": "SCALAR"
    },
    {
      "bufferView": 2,
      "byteOffset": 48432,
      "componentType": 5126,
      "count": 14,
      "max": [
        5.30079460144043,
        7.702241897583008,
        2.9914331436157227
      ],
      "min": [
        -5.300795555114746,
        6.1453423500061035,
        -0.4482994079589844
      ],
      "type": "VEC3"
    },
    {
      "bufferView": 2,
      "byteOffset": 48600,
      "componentType": 5126,
      "count": 14,
      "max": [
        0.4713968336582184,
        -0.8819212317466736,
        0.0
      ],
      "min": [
        -0.4713965654373169,
        -1.0,
        0.0
      ],
      "type": "VEC3"
    },
    {
      "bufferView": 1,
      "byteOffset": 16144,
      "componentType": 5126,
      "count": 14,
      "max": [
        0.8669261336326599,
        0.6904338598251343
      ],
      "min": [
        0.8405757546424866,
        0.6047676205635071
      ],
      "type": "VEC2"
    },
    {
      "bufferView": 0,
      "byteOffset": 20424,
      "componentType": 5125,
      "count": 36,
      "type": "SCALAR"
    },
    {
      "bufferView": 2,
      "byteOffset": 48768,
      "componentType": 5126,
      "count": 66,
      "max": [
        0.7880064845085144,
        0.7880064845085144,
        1.1493037939071655
      ],
      "min": [
        -0.7880064845085144,
        -0.7880064845085144,
        -1.1493037939071655
      ],
      "type": "VEC3"
    },
    {
      "bufferView": 2,
      "byteOffset": 49560,
      "componentType": 5126,
      "count": 66,
      "max": [
        1.0,
        1.0,
        0.0
      ],
      "min": [
        -1.0,
        -1.0,
        0.0
      ],
      "type": "VEC3"
    },
    {
      "bufferView": 1,
      "byteOffset": 16256,
      "componentType": 5126,
      "count": 66,
      "max": [
        1.0,
        1.0
      ],
      "min": [
        0.0,
        0.5
      ],
      "type": "VEC2"
    },
    {
      "bufferView": 0,
      "byteOffset": 20568,
      "componentType": 5125,
      "count": 192,
      "type": "SCALAR"
    },
    {
      "bufferView": 2,
      "byteOffset": 50352,
      "componentType": 5126,
      "count": 66,
      "max": [
        2.910120964050293,
        2.9101216793060303,
        4.548608303070068
      ],
      "min": [
        -2.910120964050293,
        -2.9101216793060303,
        -3.3850438594818115
      ],
      "type": "VEC3"
    },
    {
      "bufferView": 2,
      "byteOffset": 51144,
      "componentType": 5126,
      "count": 66,
      "max": [
        0.9681180715560913,
        0.9681180715560913,
        -0.25049445033073425
      ],
      "min": [
        -0.9681181311607361,
        -0.9681180715560913,
        -0.2504945993423462
      ],
      "type": "VEC3"
    },
    {
      "bufferView": 1,
      "byteOffset": 16784,
      "componentType": 5126,
      "count": 66,
      "max": [
        0.2132132649421692,
        0.9999538660049438
      ],
      "min": [
        4.616379737854004e-05,
        4.6133995056152344e-05
      ],
      "type": "VEC2"
    },
    {
      "bufferView": 0,
      "byteOffset": 21336,
      "componentType": 5125,
      "count": 192,
      "type": "SCALAR"
    },
    {
      "bufferView": 2,
      "byteOffset": 51936,
      "componentType": 5126,
      "count": 56,
      "max": [
        6.135371208190918,
        7.656926155090332,
        2.7173142433166504
      ],
      "min": [
        -6.135372161865234,
        0.42386555671691895,
        -0.17418015003204346
      ],
      "type": "VEC3"
    },
    {
      "bufferView": 2,
      "byteOffset": 52608,
      "componentType": 5126,
      "count": 56,
      "max": [
        0.940194308757782,
        0.3406388759613037,
        0.9997045993804932
      ],
      "min": [
        -0.9401941895484924,
        0.024225305765867233,
        -0.9997045993804932
      ],
      "type": "VEC3"
    },
    {
      "bufferView": 1,
      "byteOffset": 17312,
      "componentType": 5126,
      "count": 56,
      "max": [
        0.22843985259532928,
        0.7421101927757263
      ],
      "min": [
        0.09062579274177551,
        0.042792558670043945
      ],
      "type": "VEC2"
    },
    {
      "bufferView": 0,
      "byteOffset": 22104,
      "componentType": 5125,
      "count": 84,
      "type": "SCALAR"
    }
  ],
  "asset": {
    "extras": {
      "author": "vslite (https://sketchfab.com/vslite)",
      "license": "CC-BY-4.0 (http://creativecommons.org/licenses/by/4.0/)",
      "source": "https://sketchfab.com/3d-models/vr-gallery-museum-interior-0ea71131b5254fc183852e91bdd9d2a4",
      "title": "VR Gallery. Museum. Interior"
    },
    "generator": "Sketchfab-12.65.0",
    "version": "2.0"
  },
  "bufferViews": [
    {
      "buffer": 0,
      "byteLength": 22440,
      "name": "floatBufferViews",
      "target": 34963
    },
    {
      "buffer": 0,
      "byteLength": 17760,
      "byteOffset": 22440,
      "byteStride": 8,
      "name": "floatBufferViews",
      "target": 34962
    },
    {
      "buffer": 0,
      "byteLength": 53280,
      "byteOffset": 40200,
      "byteStride": 12,
      "name": "floatBufferViews",
      "target": 34962
    }
  ],
  "buffers": [
    {
      "byteLength": 93480,
      "uri": "scene.bin"
    }
  ],
  "extensionsUsed": [
    "KHR_materials_transmission"
  ],
  "images": [
    {
      "uri": "textures/Walls_baseColor.png"
    },
    {
      "uri": "textures/Walls_metallicRoughness.png"
    },
    {
      "uri": "textures/rays_baseColor.png"
    },
    {
      "uri": "textures/rays_emissive.png"
    }
  ],
  "materials": [
    {
      "doubleSided": true,
      "emissiveFactor": [
        0.5643160717217226,
        0.5643160717217226,
        0.5643160717217226
      ],
      "emissiveTexture": {
        "index": 0
      },
      "name": "Walls",
      "occlusionTexture": {
        "index": 1
      },
      "pbrMetallicRoughness": {
        "baseColorTexture": {
          "index": 0
        },
        "metallicRoughnessTexture": {
          "index": 1
        },
        "roughnessFactor": 0.0
      }
    },
    {
      "doubleSided": true,
      "name": "Bevel",
      "pbrMetallicRoughness": {
        "baseColorFactor": [
          0.05912920546500164,
          0.39993943359383277,
          0.48540884404178286,
          1.0
        ],
        "metallicFactor": 0.0
      }
    },
    {
      "doubleSided": true,
      "emissiveFactor": [
        1.0,
        1.0,
        1.0
      ],
      "name": "emsn.001",
      "pbrMetallicRoughness": {
        "baseColorFactor": [
          0.0,
          0.0,
          0.0,
          1.0
        ],
        "metallicFactor": 0.0
      }
    },
    {
      "alphaMode": "BLEND",
      "doubleSided": true,
      "extensions": {
        "KHR_materials_transmission": {
          "transmissionFactor": 1.0
        }
      },
      "name": "Glass",
      "pbrMetallicRoughness": {
        "baseColorFactor": [
          0.8,
          0.8,
          0.8,
          0.25
        ],
        "metallicFactor": 0.0,
        "roughnessFactor": 0.7470177871865296
      }
    },
    {
      "alphaMode": "BLEND",
      "doubleSided": true,
      "emissiveFactor": [
        1.0,
        1.0,
        1.0
      ],
      "emissiveTexture": {
        "index": 3
      },
      "name": "rays",
      "pbrMetallicRoughness": {
        "baseColorFactor": [
          0.022444177770922166,
          0.18648417912592063,
          0.13554082101180007,
          0.8042929062619704
        ],
        "baseColorTexture": {
          "index": 2
        },
        "metallicFactor": 0.0
      }
    },
    {
      "alphaMode": "BLEND",
      "doubleSided": true,
      "emissiveFactor": [
        1.0,
        1.0,
        1.0
      ],
      "emissiveTexture": {
        "index": 3
      },
      "name": "rays.001",
      "pbrMetallicRoughness": {
        "baseColorFactor": [
          0.0,
          0.0,
          0.0,
          1.0
        ],
        "baseColorTexture": {
          "index": 2
        }
      }
    }
  ],
  "meshes": [
    {
      "name": "Cylinder.005_Walls_0",
      "primitives": [
        {
          "attributes": {
            "NORMAL": 1,
            "POSITION": 0,
            "TEXCOORD_0": 2
          },
          "indices": 3,
          "material": 0,
          "mode": 4
        }
      ]
    },
    {
      "name": "Cylinder.005_Bevel_0",
      "primitives": [
        {
          "attributes": {
            "NORMAL": 5,
            "POSITION": 4,
            "TEXCOORD_0": 6
          },
          "indices": 7,
          "material": 1,
          "mode": 4
        }
      ]
    },
    {
      "name": "emsn_emsn.001_0",
      "primitives": [
        {
          "attributes": {
            "NORMAL": 9,
            "POSITION": 8,
            "TEXCOORD_0": 10
          },
          "indices": 11,
          "material": 2,
          "mode": 4
        }
      ]
    },
    {
      "name": "Cylinder.006_Glass_0",
      "primitives": [
        {
          "attributes": {
            "NORMAL": 13,
            "POSITION": 12,
            "TEXCOORD_0": 14
          },
          "indices": 15,
          "material": 3,
          "mode": 4
        }
      ]
    },
    {
      "name": "Cylinder.001_rays_0",
      "primitives": [
        {
          "attributes": {
            "NORMAL": 17,
            "POSITION": 16,
            "TEXCOORD_0": 18
          },
          "indices": 19,
          "material": 4,
          "mode": 4
        }
      ]
    },
    {
      "name": "Cylinder.002_rays.001_0",
      "primitives": [
        {
          "attributes": {
            "NORMAL": 21,
            "POSITION": 20,
            "TEXCOORD_0": 22
          },
          "indices": 23,
          "material": 5,
          "mode": 4
        }
      ]
    }
  ],
  "nodes": [
    {
      "children": [
        1
      ],
      "matrix": [
        1.0,
        0.0,
        0.0,
        0.0,
        0.0,
        2.220446049250313e-16,
        -1.0,
        0.0,
        0.0,
        1.0,
        2.220446049250313e-16,
        0.0,
        0.0,
        0.0,
        0.0,
        1.0
      ],
      "name": "Sketchfab_model"
    },
    {
      "children": [
        2
      ],
      "matrix": [
        1.0,
        0.0,
        0.0,
        0.0,
        0.0,
        0.0,
        1.0,
        0.0,
        0.0,
        -1.0,
        0.0,
        0.0,
        0.0,
        0.0,
        0.0,
        1.0
      ],
      "name": "17b6b2da16bf4f1c859f9dd95f6fd124.fbx"
    },
    {
      "children": [
        3,
        6,
        8,
        10,
        12
      ],
      "name": "RootNode"
    },
    {
      "children": [
        4,
        5
      ],
      "matrix": [
        100.0,
        0.0,
        0.0,
        0.0,
        0.0,
        -1.629206793918314e-05,
        -99.99999999999868,
        0.0,
        0.0,
        99.99999999999868,
        -1.629206793918314e-05,
        0.0,
        0.0,
        0.0,
        0.0,
        1.0
      ],
      "name": "Cylinder.005"
    },
    {
      "mesh": 0,
      "name": "Cylinder.005_Walls_0"
    },
    {
      "mesh": 1,
      "name": "Cylinder.005_Bevel_0"
    },
    {
      "children": [
        7
      ],
      "matrix": [
        100.0,
        0.0,
        0.0,
        0.0,
        0.0,
        -1.629206793918314e-05,
        -99.99999999999868,
        0.0,
        0.0,
        99.99999999999868,
        -1.629206793918314e-05,
        0.0,
        0.0,
        0.0,
        0.0,
        1.0
      ],
      "name": "emsn"
    },
    {
      "mesh": 2,
      "name": "emsn_emsn.001_0"
    },
    {
      "children": [
        9
      ],
      "matrix": [
        100.0,
        0.0,
        0.0,
        0.0,
        0.0,
        -1.629206793918314e-05,
        -99.99999999999868,
        0.0,
        0.0,
        99.99999999999868,
        -1.629206793918314e-05,
        0.0,
        0.0,
        402.9844665527344,
        0.0,
        1.0
      ],
      "name": "Cylinder.006"
    },
    {
      "mesh": 3,
      "name": "Cylinder.006_Glass_0"
    },
    {
      "children": [
        11
      ],
      "matrix": [
        100.0,
        0.0,
        0.0,
        0.0,
        0.0,
        -1.629206793918314e-05,
        -99.99999999999868,
        0.0,
        0.0,
        99.99999999999868,
        -1.629206793918314e-05,
        0.0,
        0.0,
        0.0,
        0.0,
        1.0
      ],
      "name": "Cylinder.001"
    },
    {
      "mesh": 4,
      "name": "Cylinder.001_rays_0"
    },
    {
      "children": [
        13
      ],
      "matrix": [
        100.0,
        0.0,
        0.0,
        0.0,
        0.0,
        -1.629206793918314e-05,
        -99.99999999999868,
        0.0,
        0.0,
        99.99999999999868,
        -1.629206793918314e-05,
        0.0,
        0.0,
        0.0,
        0.0,
        1.0
      ],
      "name": "Cylinder.002"
    },
    {
      "mesh": 5,
      "name": "Cylinder.002_rays.001_0"
    }
  ],
  "samplers": [
    {
      "magFilter": 9729,
      "minFilter": 9987,
      "wrapS": 10497,
      "wrapT": 10497
    }
  ],
  "scene": 0,
  "scenes": [
    {
      "name": "Sketchfab_Scene",
      "nodes": [
        0
      ]
    }
  ],
  "textures": [
    {
      "sampler": 0,
      "source": 0
    },
    {
      "sampler": 0,
      "source": 1
    },
    {
      "sampler": 0,
      "source": 2
    },
    {
      "sampler": 0,
      "source": 3
    }
  ]
}
