{
  "accessors": [
    {
      "bufferView": 2,
      "componentType": 5126,
      "count": 1488,
      "max": [
        24.819034576416016,
        31.970287322998047,
        34.89185333251953
      ],
      "min": [
        -24.819034576416016,
        -0.029712677001953125,
        -45.677734375
      ],
      "type": "VEC3"
    },
    {
      "bufferView": 2,
      "byteOffset": 17856,
      "componentType": 5126,
      "count": 1488,
      "max": [
        1.0,
        1.0,
        1.0
      ],
      "min": [
        -1.0,
        -1.0,
        -1.0
      ],
      "type": "VEC3"
    },
    {
      "bufferView": 1,
      "componentType": 5126,
      "count": 1488,
      "max": [
        0.38886845111846924,
        0.4386589229106903
      ],
      "min": [
        0.005555913783609867,
        0.006602858193218708
      ],
      "type": "VEC2"
    },
    {
      "bufferView": 0,
      "componentType": 5125,
      "count": 4320,
      "type": "SCALAR"
    },
    {
      "bufferView": 2,
      "byteOffset": 35712,
      "componentType": 5126,
      "count": 480,
      "max": [
        24.305187225341797,
        29.77454376220703,
        34.37800598144531
      ],
      "min": [
        -24.305187225341797,
        12.77960205078125,
        -45.16388702392578
      ],
      "type": "VEC3"
    },
    {
      "bufferView": 2,
      "byteOffset": 41472,
      "componentType": 5126,
      "count": 480,
      "max": [
        0.6922169327735901,
        -0.7216843962669373,
        0.6922063827514648
      ],
      "min": [
        -0.6922177076339722,
        -0.9022754430770874,
        -0.6922144293785095
      ],
      "type": "VEC3"
    },
    {
      "bufferView": 1,
      "byteOffset": 11904,
      "componentType": 5126,
      "count": 480,
      "max": [
        -0.13229113817214966,
        1.390397071838379
      ],
      "min": [
        -0.3982827067375183,
        1.1251177787780762
      ],
      "type": "VEC2"
    },
    {
      "bufferView": 0,
      "byteOffset": 17280,
      "componentType": 5125,
      "count": 1440,
      "type": "SCALAR"
    },
    {
      "bufferView": 2,
      "byteOffset": 47232,
      "componentType": 5126,
      "count": 1321,
      "max": [
        19.414628982543945,
        32.02687454223633,
        -5.584236145019531
      ],
      "min": [
        -19.414636611938477,
        0.0,
        -44.413509368896484
      ],
      "type": "VEC3"
    },
    {
      "bufferView": 2,
      "byteOffset": 63084,
      "componentType": 5126,
      "count": 1321,
      "max": [
        1.0,
        1.0,
        1.0
      ],
      "min": [
        -1.0,
        -1.0,
        -1.0
      ],
      "type": "VEC3"
    },
    {
      "bufferView": 1,
      "byteOffset": 15744,
      "componentType": 5126,
      "count": 1321,
      "max": [
        0.25336310267448425,
        0.9574965834617615
      ],
      "min": [
        0.0038823559880256653,
        0.44728443026542664
      ],
      "type": "VEC2"
    },
    {
      "bufferView": 0,
      "byteOffset": 23040,
      "componentType": 5125,
      "count": 7320,
      "type": "SCALAR"
    },
    {
      "bufferView": 2,
      "byteOffset": 78936,
      "componentType": 5126,
      "count": 69,
      "max": [
        30.0,
        0.1400279998779297,
        39.24490737915039
      ],
      "min": [
        -30.0,
        0.0,
        -50.0
      ],
      "type": "VEC3"
    },
    {
      "bufferView": 2,
      "byteOffset": 79764,
      "componentType": 5126,
      "count": 69,
      "max": [
        0.44784867763519287,
        1.0,
        0.0
      ],
      "min": [
        -0.44784867763519287,
        0.8941094875335693,
        0.0
      ],
      "type": "VEC3"
    },
    {
      "bufferView": 1,
      "byteOffset": 26312,
      "componentType": 5126,
      "count": 69,
      "max": [
        0.9889575242996216,
        0.4360002279281616
      ],
      "min": [
        0.7007006406784058,
        0.007242684252560139
      ],
      "type": "VEC2"
    },
    {
      "bufferView": 0,
      "byteOffset": 52320,
      "componentType": 5125,
      "count": 192,
      "type": "SCALAR"
    },
    {
      "bufferView": 2,
      "byteOffset": 80592,
      "componentType": 5126,
      "count": 40,
      "max": [
        30.0,
        32.0,
        39.24490737915039
      ],
      "min": [
        -30.0,
        0.0,
        -50.0
      ],
      "type": "VEC3"
    },
    {
      "bufferView": 2,
      "byteOffset": 81072,
      "componentType": 5126,
      "count": 40,
      "max": [
        1.0,
        0.0,
        1.0
      ],
      "min": [
        -1.0,
        0.0,
        -1.0
      ],
      "type": "VEC3"
    },
    {
      "bufferView": 1,
      "byteOffset": 26864,
      "componentType": 5126,
      "count": 40,
      "max": [
        0.9889577031135559,
        0.7718814611434937
      ],
      "min": [
        0.2586164176464081,
        0.4522326588630676
      ],
      "type": "VEC2"
    },
    {
      "bufferView": 0,
      "byteOffset": 53088,
      "componentType": 5125,
      "count": 96,
      "type": "SCALAR"
    },
    {
      "bufferView": 2,
      "byteOffset": 81552,
      "componentType": 5126,
      "count": 29,
      "max": [
        30.0,
        32.0,
        39.24490737915039
      ],
      "min": [
        -30.0,
        32.0,
        -50.0
      ],
      "type": "VEC3"
    },
    {
      "bufferView": 2,
      "byteOffset": 81900,
      "componentType": 5126,
      "count": 29,
      "max": [
        0.0,
        -1.0,
        2.1623654333779996e-07
      ],
      "min": [
        0.0,
        -1.0,
        -6.117477369116386e-08
      ],
      "type": "VEC3"
    },
    {
      "bufferView": 1,
      "byteOffset": 27184,
      "componentType": 5126,
      "count": 29,
      "max": [
        0.6872319579124451,
        0.4360007047653198
      ],
      "min": [
        0.3989750146865845,
        0.007242739200592041
      ],
      "type": "VEC2"
    },
    {
      "bufferView": 0,
      "byteOffset": 53472,
      "componentType": 5125,
      "count": 96,
      "type": "SCALAR"
    },
    {
      "bufferView": 2,
      "byteOffset": 82248,
      "componentType": 5126,
      "count": 40,
      "max": [
        27.896839141845703,
        32.000003814697266,
        43.1363410949707
      ],
      "min": [
        -27.896839141845703,
        31.715087890625,
        -43.1363410949707
      ],
      "type": "VEC3"
    },
    {
      "bufferView": 2,
      "byteOffset": 82728,
      "componentType": 5126,
      "count": 40,
      "max": [
        1.0,
        0.0,
        1.0
      ],
      "min": [
        -1.0,
        -1.0,
        -1.0
      ],
      "type": "VEC3"
    },
    {
      "bufferView": 1,
      "byteOffset": 27416,
      "componentType": 5126,
      "count": 40,
      "max": [
        0.7207390666007996,
        0.9980080723762512
      ],
      "min": [
        0.0014386010589078069,
        0.0019920319318771362
      ],
      "type": "VEC2"
    },
    {
      "bufferView": 0,
      "byteOffset": 53856,
      "componentType": 5125,
      "count": 72,
      "type": "SCALAR"
    },
    {
      "bufferView": 2,
      "byteOffset": 83208,
      "componentType": 5126,
      "count": 48,
      "max": [
        30.0,
        27.837766647338867,
        44.62245559692383
      ],
      "min": [
        -30.0,
        4.46428108215332,
        -44.62245178222656
      ],
      "type": "VEC3"
    },
    {
      "bufferView": 2,
      "byteOffset": 83784,
      "componentType": 5126,
      "count": 48,
      "max": [
        1.0,
        1.0,
        0.0
      ],
      "min": [
        -1.0,
        -1.0,
        0.0
      ],
      "type": "VEC3"
    },
    {
      "bufferView": 1,
      "byteOffset": 27736,
      "componentType": 5126,
      "count": 48,
      "max": [
        0.08258964121341705,
        0.9980079531669617
      ],
      "min": [
        0.00016484955267515033,
        0.0019920319318771362
      ],
      "type": "VEC2"
    },
    {
      "bufferView": 0,
      "byteOffset": 54144,
      "componentType": 5125,
      "count": 72,
      "type": "SCALAR"
    },
    {
      "bufferView": 2,
      "byteOffset": 84360,
      "componentType": 5126,
      "count": 119,
      "max": [
        17.450651168823242,
        32.02687454223633,
        -2.1706690788269043
      ],
      "min": [
        -17.45065689086914,
        32.0268669128418,
        -37.07197570800781
      ],
      "type": "VEC3"
    },
    {
      "bufferView": 2,
      "byteOffset": 85788,
      "componentType": 5126,
      "count": 119,
      "max": [
        4.3719845166378946e-07,
        -1.0,
        5.125278221385088e-06
      ],
      "min": [
        -4.371985085072083e-07,
        -1.0,
        -5.125277766637737e-06
      ],
      "type": "VEC3"
    },
    {
      "bufferView": 1,
      "byteOffset": 28120,
      "componentType": 5126,
      "count": 119,
      "max": [
        1.5835320949554443,
        1.527535319328308
      ],
      "min": [
        1.096366047859192,
        1.0403693914413452
      ],
      "type": "VEC2"
    },
    {
      "bufferView": 0,
      "byteOffset": 54432,
      "componentType": 5125,
      "count": 120,
      "type": "SCALAR"
    }
  ],
  "asset": {
    "extras": {
      "author": "BehNaM (https://sketchfab.com/GbehnamG)",
      "license": "SKETCHFAB Standard (https://sketchfab.com/licenses)",
      "source": "https://sketchfab.com/3d-models/sci-fi-portal-gallery-for-product-showcase-22-955e5d0d9aeb4f2fbcbaba21f28bff80",
      "title": "Sci-fi Portal & Gallery for Product Showcase 22"
    },
    "generator": "Sketchfab-12.66.0",
    "version": "2.0"
  },
  "bufferViews": [
    {
      "buffer": 0,
      "byteLength": 54912,
      "name": "floatBufferViews",
      "target": 34963
    },
    {
      "buffer": 0,
      "byteLength": 29072,
      "byteOffset": 54912,
      "byteStride": 8,
      "name": "floatBufferViews",
      "target": 34962
    },
    {
      "buffer": 0,
      "byteLength": 87216,
      "byteOffset": 83984,
      "byteStride": 12,
      "name": "floatBufferViews",
      "target": 34962
    }
  ],
  "buffers": [
    {
      "byteLength": 171200,
      "uri": "scene.bin"
    }
  ],
  "extensionsRequired": [
    "KHR_materials_pbrSpecularGlossiness"
  ],
  "extensionsUsed": [
    "KHR_materials_pbrSpecularGlossiness"
  ],
  "images": [
    {
      "uri": "textures/lambert3_specularGlossiness.jpeg"
    },
    {
      "uri": "textures/lambert3_occlusion.png"
    }
  ],
  "materials": [
    {
      "doubleSided": true,
      "extensions": {
        "KHR_materials_pbrSpecularGlossiness": {
          "diffuseFactor": [
            0.325,
            0.325,
            0.325,
            1.0
          ],
          "glossinessFactor": 0.0,
          "specularFactor": [
            1.0,
            1.0,
            1.0
          ],
          "specularGlossinessTexture": {
            "index": 0
          }
        }
      },
      "name": "lambert3",
      "occlusionTexture": {
        "index": 1
      }
    },
    {
      "doubleSided": true,
      "emissiveFactor": [
        0.12737281722454627,
        0.619340145385992,
        1.0
      ],
      "extensions": {
        "KHR_materials_pbrSpecularGlossiness": {
          "diffuseFactor": [
            0.0,
            0.4910208498478356,
            1.0,
            1.0
          ],
          "glossinessFactor": 0.0,
          "specularFactor": [
            1.0,
            1.0,
            1.0
          ]
        }
      },
      "name": "lambert2"
    },
    {
      "doubleSided": true,
      "extensions": {
        "KHR_materials_pbrSpecularGlossiness": {
          "diffuseFactor": [
            0.35,
            0.35,
            0.35,
            1.0
          ],
          "glossinessFactor": 0.0,
          "specularFactor": [
            1.0,
            1.0,
            1.0
          ],
          "specularGlossinessTexture": {
            "index": 0
          }
        }
      },
      "name": "lambert8",
      "occlusionTexture": {
        "index": 1
      }
    },
    {
      "doubleSided": true,
      "extensions": {
        "KHR_materials_pbrSpecularGlossiness": {
          "diffuseFactor": [
            0.35,
            0.35,
            0.35,
            1.0
          ],
          "glossinessFactor": 0.8101807362991533,
          "specularFactor": [
            1.0,
            1.0,
            1.0
          ],
          "specularGlossinessTexture": {
            "index": 0
          }
        }
      },
      "name": "lambert5",
      "occlusionTexture": {
        "index": 1
      }
    },
    {
      "extensions": {
        "KHR_materials_pbrSpecularGlossiness": {
          "diffuseFactor": [
            0.35,
            0.35,
            0.35,
            1.0
          ],
          "glossinessFactor": 0.8951517854488359,
          "specularFactor": [
            1.0,
            1.0,
            1.0
          ],
          "specularGlossinessTexture": {
            "index": 0
          }
        }
      },
      "name": "lambert7",
      "occlusionTexture": {
        "index": 1
      }
    },
    {
      "extensions": {
        "KHR_materials_pbrSpecularGlossiness": {
          "diffuseFactor": [
            0.35,
            0.35,
            0.35,
            1.0
          ],
          "glossinessFactor": 0.0,
          "specularFactor": [
            1.0,
            1.0,
            1.0
          ],
          "specularGlossinessTexture": {
            "index": 0
          }
        }
      },
      "name": "lambert6",
      "occlusionTexture": {
        "index": 1
      }
    },
    {
      "doubleSided": true,
      "emissiveFactor": [
        0.15853815577945415,
        0.3999998873527279,
        0.6116949389264957
      ],
      "extensions": {
        "KHR_materials_pbrSpecularGlossiness": {
          "diffuseFactor": [
            0.0,
            0.4907075975377867,
            1.0,
            1.0
          ],
          "glossinessFactor": 0.0,
          "specularFactor": [
            1.0,
            1.0,
            1.0
          ]
        }
      },
      "name": "lambert12"
    },
    {
      "doubleSided": true,
      "emissiveFactor": [
        0.6312718443609687,
        0.15060760120092728,
        0.6815071659974112
      ],
      "extensions": {
        "KHR_materials_pbrSpecularGlossiness": {
          "diffuseFactor": [
            0.6404546830733966,
            0.0,
            1.0,
            1.0
          ],
          "glossinessFactor": 0.0,
          "specularFactor": [
            1.0,
            1.0,
            1.0
          ]
        }
      },
      "name": "lambert11"
    },
    {
      "doubleSided": true,
      "emissiveFactor": [
        0.3201588670857908,
        0.3201588670857908,
        0.3201588670857908
      ],
      "extensions": {
        "KHR_materials_pbrSpecularGlossiness": {
          "diffuseFactor": [
            1.0,
            1.0,
            1.0,
            1.0
          ],
          "glossinessFactor": 0.0,
          "specularFactor": [
            1.0,
            1.0,
            1.0
          ]
        }
      },
      "name": "lambert13"
    }
  ],
  "meshes": [
    {
      "name": "polySurface17_lambert3_0",
      "primitives": [
        {
          "attributes": {
            "NORMAL": 1,
            "POSITION": 0,
            "TEXCOORD_0": 2
          },
          "indices": 3,
          "material": 0,
          "mode": 4
        }
      ]
    },
    {
      "name": "polySurface18_lambert2_0",
      "primitives": [
        {
          "attributes": {
            "NORMAL": 5,
            "POSITION": 4,
            "TEXCOORD_0": 6
          },
          "indices": 7,
          "material": 1,
          "mode": 4
        }
      ]
    },
    {
      "name": "polySurface23_lambert8_0",
      "primitives": [
        {
          "attributes": {
            "NORMAL": 9,
            "POSITION": 8,
            "TEXCOORD_0": 10
          },
          "indices": 11,
          "material": 2,
          "mode": 4
        }
      ]
    },
    {
      "name": "polySurface19_lambert5_0",
      "primitives": [
        {
          "attributes": {
            "NORMAL": 13,
            "POSITION": 12,
            "TEXCOORD_0": 14
          },
          "indices": 15,
          "material": 3,
          "mode": 4
        }
      ]
    },
    {
      "name": "polySurface20_lambert7_0",
      "primitives": [
        {
          "attributes": {
            "NORMAL": 17,
            "POSITION": 16,
            "TEXCOORD_0": 18
          },
          "indices": 19,
          "material": 4,
          "mode": 4
        }
      ]
    },
    {
      "name": "polySurface21_lambert6_0",
      "primitives": [
        {
          "attributes": {
            "NORMAL": 21,
            "POSITION": 20,
            "TEXCOORD_0": 22
          },
          "indices": 23,
          "material": 5,
          "mode": 4
        }
      ]
    },
    {
      "name": "pCube1_lambert12_0",
      "primitives": [
        {
          "attributes": {
            "NORMAL": 25,
            "POSITION": 24,
            "TEXCOORD_0": 26
          },
          "indices": 27,
          "material": 6,
          "mode": 4
        }
      ]
    },
    {
      "name": "pCube6_lambert11_0",
      "primitives": [
        {
          "attributes": {
            "NORMAL": 29,
            "POSITION": 28,
            "TEXCOORD_0": 30
          },
          "indices": 31,
          "material": 7,
          "mode": 4
        }
      ]
    },
    {
      "name": "pCube8_lambert13_0",
      "primitives": [
        {
          "attributes": {
            "NORMAL": 33,
            "POSITION": 32,
            "TEXCOORD_0": 34
          },
          "indices": 35,
          "material": 8,
          "mode": 4
        }
      ]
    }
  ],
  "nodes": [
    {
      "children": [
        1
      ],
      "matrix": [
        15.069086074829102,
        0.0,
        0.0,
        0.0,
        0.0,
        3.3460092640667186e-15,
        -15.069086074829102,
        0.0,
        0.0,
        15.069086074829102,
        3.3460092640667186e-15,
        0.0,
        0.0,
        0.0,
        0.0,
        1.0
      ],
      "name": "Sketchfab_model"
    },
    {
      "children": [
        2
      ],
      "matrix": [
        0.009999999776482582,
        0.0,
        0.0,
        0.0,
        0.0,
        0.0,
        0.009999999776482582,
        0.0,
        0.0,
        -0.009999999776482582,
        0.0,
        0.0,
        0.0,
        0.0,
        0.0,
        1.0
      ],
      "name": "c3a74ebc2deb4abfb0820bb4f7dcb19c.fbx"
    },
    {
      "children": [
        3,
        5,
        7,
        10,
        17,
        19,
        21
      ],
      "name": "RootNode"
    },
    {
      "children": [
        4
      ],
      "matrix": [
        1.0,
        0.0,
        0.0,
        0.0,
        0.0,
        1.0,
        0.0,
        0.0,
        0.0,
        0.0,
        1.0,
        0.0,
        0.0,
        0.0,
        5.377546787261963,
        1.0
      ],
      "name": "polySurface17"
    },
    {
      "mesh": 0,
      "name": "polySurface17_lambert3_0"
    },
    {
      "children": [
        6
      ],
      "matrix": [
        1.0,
        0.0,
        0.0,
        0.0,
        0.0,
        1.0,
        0.0,
        0.0,
        0.0,
        0.0,
        1.0,
        0.0,
        0.0,
        0.0,
        5.377546787261963,
        1.0
      ],
      "name": "polySurface18"
    },
    {
      "mesh": 1,
      "name": "polySurface18_lambert2_0"
    },
    {
      "children": [
        8
      ],
      "name": "pCylinder5"
    },
    {
      "children": [
        9
      ],
      "matrix": [
        1.0,
        0.0,
        0.0,
        0.0,
        0.0,
        1.0,
        0.0,
        0.0,
        0.0,
        0.0,
        1.0,
        0.0,
        0.0,
        0.0,
        5.377546787261963,
        1.0
      ],
      "name": "polySurface23"
    },
    {
      "mesh": 2,
      "name": "polySurface23_lambert8_0"
    },
    {
      "children": [
        11,
        13,
        15
      ],
      "name": "polySurface2"
    },
    {
      "children": [
        12
      ],
      "matrix": [
        1.0,
        0.0,
        0.0,
        0.0,
        0.0,
        1.0,
        0.0,
        0.0,
        0.0,
        0.0,
        1.0,
        0.0,
        0.0,
        0.0,
        5.377546787261963,
        1.0
      ],
      "name": "polySurface19"
    },
    {
      "mesh": 3,
      "name": "polySurface19_lambert5_0"
    },
    {
      "children": [
        14
      ],
      "matrix": [
        1.0,
        0.0,
        0.0,
        0.0,
        0.0,
        1.0,
        0.0,
        0.0,
        0.0,
        0.0,
        1.0,
        0.0,
        0.0,
        0.0,
        5.377546787261963,
        1.0
      ],
      "name": "polySurface20"
    },
    {
      "mesh": 4,
      "name": "polySurface20_lambert7_0"
    },
    {
      "children": [
        16
      ],
      "matrix": [
        1.0,
        0.0,
        0.0,
        0.0,
        0.0,
        1.0,
        0.0,
        0.0,
        0.0,
        0.0,
        1.0,
        0.0,
        0.0,
        0.0,
        5.377546787261963,
        1.0
      ],
      "name": "polySurface21"
    },
    {
      "mesh": 5,
      "name": "polySurface21_lambert6_0"
    },
    {
      "children": [
        18
      ],
      "name": "pCube1"
    },
    {
      "mesh": 6,
      "name": "pCube1_lambert12_0"
    },
    {
      "children": [
        20
      ],
      "name": "pCube6"
    },
    {
      "mesh": 7,
      "name": "pCube6_lambert11_0"
    },
    {
      "children": [
        22
      ],
      "name": "pCube8"
    },
    {
      "mesh": 8,
      "name": "pCube8_lambert13_0"
    }
  ],
  "samplers": [
    {
      "magFilter": 9729,
      "minFilter": 9987,
      "wrapS": 10497,
      "wrapT": 10497
    }
  ],
  "scene": 0,
  "scenes": [
    {
      "name": "Sketchfab_Scene",
      "nodes": [
        0
      ]
    }
  ],
  "textures": [
    {
      "sampler": 0,
      "source": 0
    },
    {
      "sampler": 0,
      "source": 1
    }
  ]
}
