{
  "accessors": [
    {
      "bufferView": 2,
      "componentType": 5126,
      "count": 4620,
      "max": [
        417.625,
        410.87506103515625,
        205.5
      ],
      "min": [
        -318.6875,
        -150.8125,
        -2.406821090914841e-16
      ],
      "type": "VEC3"
    },
    {
      "bufferView": 2,
      "byteOffset": 55440,
      "componentType": 5126,
      "count": 4620,
      "max": [
        1.0,
        1.0,
        1.0
      ],
      "min": [
        -1.0,
        -1.0,
        -1.0
      ],
      "type": "VEC3"
    },
    {
      "bufferView": 3,
      "componentType": 5126,
      "count": 4620,
      "max": [
        1.0,
        1.0,
        1.0,
        1.0
      ],
      "min": [
        -1.0,
        -1.0,
        -1.0,
        -1.0
      ],
      "type": "VEC4"
    },
    {
      "bufferView": 1,
      "componentType": 5126,
      "count": 4620,
      "max": [
        10.774200439453125,
        2.1973400115966797
      ],
      "min": [
        -4.542133808135986,
        -0.2312989979982376
      ],
      "type": "VEC2"
    },
    {
      "bufferView": 0,
      "componentType": 5125,
      "count": 7494,
      "type": "SCALAR"
    },
    {
      "bufferView": 2,
      "byteOffset": 110880,
      "componentType": 5126,
      "count": 354,
      "max": [
        417.625,
        410.875,
        281.5
      ],
      "min": [
        -313.6875,
        -150.8125,
        205.5
      ],
      "type": "VEC3"
    },
    {
      "bufferView": 2,
      "byteOffset": 115128,
      "componentType": 5126,
      "count": 354,
      "max": [
        0.7141188979148865,
        4.243829039597688e-18,
        1.0
      ],
      "min": [
        -0.7141188979148865,
        -4.243829039597688e-18,
        -1.0
      ],
      "type": "VEC3"
    },
    {
      "bufferView": 3,
      "byteOffset": 73920,
      "componentType": 5126,
      "count": 354,
      "max": [
        1.0,
        1.0,
        2.9707844283984717e-18,
        1.0
      ],
      "min": [
        -1.7449959841542295e-06,
        -0.0002775722532533109,
        0.0,
        -1.0
      ],
      "type": "VEC4"
    },
    {
      "bufferView": 1,
      "byteOffset": 36960,
      "componentType": 5126,
      "count": 354,
      "max": [
        2.6603078842163086,
        5.354382038116455
      ],
      "min": [
        0.0,
        -1.7763570511584873e-15
      ],
      "type": "VEC2"
    },
    {
      "bufferView": 0,
      "byteOffset": 29976,
      "componentType": 5125,
      "count": 1044,
      "type": "SCALAR"
    },
    {
      "bufferView": 2,
      "byteOffset": 119376,
      "componentType": 5126,
      "count": 59,
      "max": [
        281.75,
        179.375,
        182.28250122070313
      ],
      "min": [
        -318.6875,
        -54.9375,
        9.091483882013747e-24
      ],
      "type": "VEC3"
    },
    {
      "bufferView": 2,
      "byteOffset": 120084,
      "componentType": 5126,
      "count": 59,
      "max": [
        1.0,
        1.0,
        1.0
      ],
      "min": [
        -2.2737370254828637e-13,
        -1.0,
        -1.0
      ],
      "type": "VEC3"
    },
    {
      "bufferView": 0,
      "byteOffset": 34152,
      "componentType": 5125,
      "count": 126,
      "type": "SCALAR"
    },
    {
      "bufferView": 2,
      "byteOffset": 120792,
      "componentType": 5126,
      "count": 207,
      "max": [
        281.75,
        346.6129150390625,
        206.0625
      ],
      "min": [
        -68.10254669189453,
        -54.9375,
        7.5
      ],
      "type": "VEC3"
    },
    {
      "bufferView": 2,
      "byteOffset": 123276,
      "componentType": 5126,
      "count": 207,
      "max": [
        2.2737370254828637e-13,
        1.0,
        1.0
      ],
      "min": [
        -1.0,
        -1.0,
        -1.0
      ],
      "type": "VEC3"
    },
    {
      "bufferView": 0,
      "byteOffset": 34656,
      "componentType": 5125,
      "count": 528,
      "type": "SCALAR"
    },
    {
      "bufferView": 2,
      "byteOffset": 125760,
      "componentType": 5126,
      "count": 64,
      "max": [
        281.75,
        59.75689697265625,
        179.02430725097656
      ],
      "min": [
        279.75,
        -16.934402465820313,
        73.19863891601563
      ],
      "type": "VEC3"
    },
    {
      "bufferView": 2,
      "byteOffset": 126528,
      "componentType": 5126,
      "count": 64,
      "max": [
        1.0,
        1.8537080575501026e-14,
        6.248174957838078e-15
      ],
      "min": [
        -1.0,
        -1.8537080575501026e-14,
        -6.248174957838078e-15
      ],
      "type": "VEC3"
    },
    {
      "bufferView": 0,
      "byteOffset": 36768,
      "componentType": 5125,
      "count": 120,
      "type": "SCALAR"
    },
    {
      "bufferView": 2,
      "byteOffset": 127296,
      "componentType": 5126,
      "count": 616,
      "max": [
        476.0625,
        410.875,
        281.5
      ],
      "min": [
        -318.6875,
        -150.8125,
        9.091483882013747e-24
      ],
      "type": "VEC3"
    },
    {
      "bufferView": 2,
      "byteOffset": 134688,
      "componentType": 5126,
      "count": 616,
      "max": [
        1.0,
        1.0,
        1.0
      ],
      "min": [
        -1.0,
        -1.0,
        -1.0
      ],
      "type": "VEC3"
    },
    {
      "bufferView": 3,
      "byteOffset": 79584,
      "componentType": 5126,
      "count": 616,
      "max": [
        1.0,
        1.0,
        0.0813269391655922,
        1.0
      ],
      "min": [
        -1.0,
        -1.0,
        -1.0,
        -1.0
      ],
      "type": "VEC4"
    },
    {
      "bufferView": 1,
      "byteOffset": 39792,
      "componentType": 5126,
      "count": 616,
      "max": [
        12.538350105285645,
        16.601839065551758
      ],
      "min": [
        -7.602595806121826,
        -2.220446049250313e-15
      ],
      "type": "VEC2"
    },
    {
      "bufferView": 0,
      "byteOffset": 37248,
      "componentType": 5125,
      "count": 1536,
      "type": "SCALAR"
    },
    {
      "bufferView": 2,
      "byteOffset": 142080,
      "componentType": 5126,
      "count": 4,
      "max": [
        279.75,
        21.411300659179688,
        205.5
      ],
      "min": [
        58.0625,
        -54.9375,
        179.24899291992188
      ],
      "type": "VEC3"
    },
    {
      "bufferView": 0,
      "byteOffset": 43392,
      "componentType": 5125,
      "count": 4,
      "type": "SCALAR"
    },
    {
      "bufferView": 2,
      "byteOffset": 142128,
      "componentType": 5126,
      "count": 40,
      "max": [
        278.0,
        137.5625,
        53.5
      ],
      "min": [
        42.5,
        -150.0625,
        47.5
      ],
      "type": "VEC3"
    },
    {
      "bufferView": 2,
      "byteOffset": 142608,
      "componentType": 5126,
      "count": 40,
      "max": [
        1.0,
        1.0,
        0.0
      ],
      "min": [
        -1.0,
        -1.0,
        0.0
      ],
      "type": "VEC3"
    },
    {
      "bufferView": 3,
      "byteOffset": 89440,
      "componentType": 5126,
      "count": 40,
      "max": [
        1.0,
        1.0,
        0.0,
        1.0
      ],
      "min": [
        -1.0,
        -1.0,
        0.0,
        -1.0
      ],
      "type": "VEC4"
    },
    {
      "bufferView": 1,
      "byteOffset": 44720,
      "componentType": 5126,
      "count": 40,
      "max": [
        7.04819393157959,
        0.6378136277198792
      ],
      "min": [
        -0.010999999940395355,
        0.3959999978542328
      ],
      "type": "VEC2"
    },
    {
      "bufferView": 0,
      "byteOffset": 43408,
      "componentType": 5125,
      "count": 60,
      "type": "SCALAR"
    },
    {
      "bufferView": 2,
      "byteOffset": 143088,
      "componentType": 5126,
      "count": 68,
      "max": [
        416.875,
        410.125,
        161.5
      ],
      "min": [
        -318.6875,
        -150.0625,
        -2.406821090914841e-16
      ],
      "type": "VEC3"
    },
    {
      "bufferView": 2,
      "byteOffset": 143904,
      "componentType": 5126,
      "count": 68,
      "max": [
        4.350231763332222e-19,
        1.7066709689910512e-17,
        1.0
      ],
      "min": [
        -4.350231763332222e-19,
        -1.7066709689910512e-17,
        -1.0
      ],
      "type": "VEC3"
    },
    {
      "bufferView": 3,
      "byteOffset": 90080,
      "componentType": 5126,
      "count": 68,
      "max": [
        1.0,
        1.0,
        0.0,
        1.0
      ],
      "min": [
        -1.0,
        -1.0,
        -4.350279843205327e-19,
        -1.0
      ],
      "type": "VEC4"
    },
    {
      "bufferView": 1,
      "byteOffset": 45040,
      "componentType": 5126,
      "count": 68,
      "max": [
        3.86222505569458,
        4.8365888595581055
      ],
      "min": [
        -0.04221023991703987,
        -1.7763570511584873e-15
      ],
      "type": "VEC2"
    },
    {
      "bufferView": 0,
      "byteOffset": 43648,
      "componentType": 5125,
      "count": 144,
      "type": "SCALAR"
    },
    {
      "bufferView": 2,
      "byteOffset": 144720,
      "componentType": 5126,
      "count": 144,
      "max": [
        222.10260009765625,
        303.4150085449219,
        206.0625
      ],
      "min": [
        -68.10254669189453,
        9.897449493408203,
        206.0625
      ],
      "type": "VEC3"
    },
    {
      "bufferView": 2,
      "byteOffset": 146448,
      "componentType": 5126,
      "count": 144,
      "max": [
        0.0,
        0.0,
        -1.0
      ],
      "min": [
        0.0,
        0.0,
        -1.0
      ],
      "type": "VEC3"
    },
    {
      "bufferView": 0,
      "byteOffset": 44224,
      "componentType": 5125,
      "count": 396,
      "type": "SCALAR"
    },
    {
      "bufferView": 2,
      "byteOffset": 148176,
      "componentType": 5126,
      "count": 2016,
      "max": [
        222.6562957763672,
        303.96868896484375,
        207.6875
      ],
      "min": [
        -68.65625,
        9.34375,
        205.5
      ],
      "type": "VEC3"
    },
    {
      "bufferView": 2,
      "byteOffset": 172368,
      "componentType": 5126,
      "count": 2016,
      "max": [
        1.0,
        1.0,
        1.0
      ],
      "min": [
        -1.0,
        -1.0,
        -1.0
      ],
      "type": "VEC3"
    },
    {
      "bufferView": 0,
      "byteOffset": 45808,
      "componentType": 5125,
      "count": 5976,
      "type": "SCALAR"
    }
  ],
  "asset": {
    "extras": {
      "author": "jimbogies (https://sketchfab.com/jimbogies)",
      "license": "CC-BY-4.0 (http://creativecommons.org/licenses/by/4.0/)",
      "source": "https://sketchfab.com/3d-models/interior-building-scene-9c1dad0cc26a4d2fa16d59d067c8f871",
      "title": "Interior Building Scene"
    },
    "generator": "Sketchfab-12.74.0",
    "version": "2.0"
  },
  "bufferViews": [
    {
      "buffer": 0,
      "byteLength": 69712,
      "name": "floatBufferViews",
      "target": 34963
    },
    {
      "buffer": 0,
      "byteLength": 45584,
      "byteOffset": 69712,
      "byteStride": 8,
      "name": "floatBufferViews",
      "target": 34962
    },
    {
      "buffer": 0,
      "byteLength": 196560,
      "byteOffset": 115296,
      "byteStride": 12,
      "name": "floatBufferViews",
      "target": 34962
    },
    {
      "buffer": 0,
      "byteLength": 91168,
      "byteOffset": 311856,
      "byteStride": 16,
      "name": "floatBufferViews",
      "target": 34962
    }
  ],
  "buffers": [
    {
      "byteLength": 403024,
      "uri": "scene.bin"
    }
  ],
  "extensionsUsed": [
    "KHR_texture_transform"
  ],
  "images": [
    {
      "uri": "textures/WoodTrim_baseColor.jpeg"
    },
    {
      "uri": "textures/WoodTrim_metallicRoughness.png"
    },
    {
      "uri": "textures/WoodTrim_normal.png"
    },
    {
      "uri": "textures/Ceiling_baseColor.jpeg"
    },
    {
      "uri": "textures/Ceiling_metallicRoughness.png"
    },
    {
      "uri": "textures/Ceiling_normal.png"
    },
    {
      "uri": "textures/GrayPlaster_baseColor.jpeg"
    },
    {
      "uri": "textures/GrayPlaster_metallicRoughness.png"
    },
    {
      "uri": "textures/GrayPlaster_normal.png"
    },
    {
      "uri": "textures/Trim02_baseColor.jpeg"
    },
    {
      "uri": "textures/Trim02_metallicRoughness.png"
    },
    {
      "uri": "textures/Trim02_normal.png"
    },
    {
      "uri": "textures/FloorTiles_baseColor.jpeg"
    },
    {
      "uri": "textures/FloorTiles_normal.jpeg"
    }
  ],
  "materials": [
    {
      "name": "WoodTrim",
      "normalTexture": {
        "index": 2
      },
      "pbrMetallicRoughness": {
        "baseColorTexture": {
          "index": 0
        },
        "metallicFactor": 0.0,
        "metallicRoughnessTexture": {
          "index": 1
        }
      }
    },
    {
      "name": "Ceiling",
      "normalTexture": {
        "index": 5
      },
      "pbrMetallicRoughness": {
        "baseColorTexture": {
          "index": 3
        },
        "metallicFactor": 0.0,
        "metallicRoughnessTexture": {
          "index": 4
        }
      }
    },
    {
      "name": "material",
      "pbrMetallicRoughness": {
        "metallicFactor": 0.0,
        "roughnessFactor": 0.6
      }
    },
    {
      "name": "material_0",
      "pbrMetallicRoughness": {
        "baseColorFactor": [
          0.643137,
          0.698039,
          0.733333,
          1.0
        ],
        "metallicFactor": 0.0,
        "roughnessFactor": 0.6
      }
    },
    {
      "alphaMode": "BLEND",
      "name": "Translucent_Glass_Gray",
      "pbrMetallicRoughness": {
        "baseColorFactor": [
          0.501961,
          0.501961,
          0.501961,
          0.27531784105211315
        ],
        "metallicFactor": 0.9745377548,
        "roughnessFactor": 0.0
      }
    },
    {
      "name": "GrayPlaster",
      "normalTexture": {
        "index": 8
      },
      "pbrMetallicRoughness": {
        "baseColorTexture": {
          "index": 6
        },
        "metallicFactor": 0.0,
        "metallicRoughnessTexture": {
          "index": 7
        }
      }
    },
    {
      "name": "edge_color000255",
      "pbrMetallicRoughness": {
        "metallicFactor": 0.0,
        "roughnessFactor": 0.6
      }
    },
    {
      "name": "Trim02",
      "normalTexture": {
        "index": 11
      },
      "pbrMetallicRoughness": {
        "baseColorTexture": {
          "index": 9
        },
        "metallicFactor": 0.0,
        "metallicRoughnessTexture": {
          "index": 10
        }
      }
    },
    {
      "name": "FloorTiles",
      "normalTexture": {
        "extensions": {
          "KHR_texture_transform": {
            "scale": [
              0.68,
              0.68
            ]
          }
        },
        "index": 13
      },
      "pbrMetallicRoughness": {
        "baseColorTexture": {
          "extensions": {
            "KHR_texture_transform": {
              "scale": [
                0.6789779823,
                0.6789779823
              ]
            }
          },
          "index": 12
        },
        "metallicFactor": 0.0,
        "roughnessFactor": 0.36044026533875684
      }
    },
    {
      "emissiveFactor": [
        0.9899281931549411,
        0.9899281931549411,
        0.9899281931549411
      ],
      "name": "Light",
      "pbrMetallicRoughness": {
        "baseColorFactor": [
          1.0,
          0.894118,
          0.768628,
          1.0
        ],
        "metallicFactor": 0.0,
        "roughnessFactor": 0.6
      }
    },
    {
      "name": "Black",
      "pbrMetallicRoughness": {
        "baseColorFactor": [
          0.2307903924940071,
          0.2307903924940071,
          0.2307903924940071,
          1.0
        ],
        "metallicFactor": 0.5610859797287027,
        "roughnessFactor": 0.19627558992880118
      }
    }
  ],
  "meshes": [
    {
      "name": "Material2",
      "primitives": [
        {
          "attributes": {
            "NORMAL": 1,
            "POSITION": 0,
            "TANGENT": 2,
            "TEXCOORD_0": 3
          },
          "indices": 4,
          "material": 0,
          "mode": 4
        }
      ]
    },
    {
      "name": "Material2",
      "primitives": [
        {
          "attributes": {
            "NORMAL": 6,
            "POSITION": 5,
            "TANGENT": 7,
            "TEXCOORD_0": 8
          },
          "indices": 9,
          "material": 1,
          "mode": 4
        }
      ]
    },
    {
      "name": "Material2",
      "primitives": [
        {
          "attributes": {
            "NORMAL": 11,
            "POSITION": 10
          },
          "indices": 12,
          "material": 2,
          "mode": 4
        }
      ]
    },
    {
      "name": "Material3",
      "primitives": [
        {
          "attributes": {
            "NORMAL": 14,
            "POSITION": 13
          },
          "indices": 15,
          "material": 3,
          "mode": 4
        }
      ]
    },
    {
      "name": "Material2",
      "primitives": [
        {
          "attributes": {
            "NORMAL": 17,
            "POSITION": 16
          },
          "indices": 18,
          "material": 4,
          "mode": 4
        }
      ]
    },
    {
      "name": "Material2",
      "primitives": [
        {
          "attributes": {
            "NORMAL": 20,
            "POSITION": 19,
            "TANGENT": 21,
            "TEXCOORD_0": 22
          },
          "indices": 23,
          "material": 5,
          "mode": 4
        }
      ]
    },
    {
      "name": "Material2",
      "primitives": [
        {
          "attributes": {
            "POSITION": 24
          },
          "indices": 25,
          "material": 6,
          "mode": 1
        }
      ]
    },
    {
      "name": "Material2",
      "primitives": [
        {
          "attributes": {
            "NORMAL": 27,
            "POSITION": 26,
            "TANGENT": 28,
            "TEXCOORD_0": 29
          },
          "indices": 30,
          "material": 7,
          "mode": 4
        }
      ]
    },
    {
      "name": "Material2",
      "primitives": [
        {
          "attributes": {
            "NORMAL": 32,
            "POSITION": 31,
            "TANGENT": 33,
            "TEXCOORD_0": 34
          },
          "indices": 35,
          "material": 8,
          "mode": 4
        }
      ]
    },
    {
      "name": "Material3",
      "primitives": [
        {
          "attributes": {
            "NORMAL": 37,
            "POSITION": 36
          },
          "indices": 38,
          "material": 9,
          "mode": 4
        }
      ]
    },
    {
      "name": "Material2",
      "primitives": [
        {
          "attributes": {
            "NORMAL": 40,
            "POSITION": 39
          },
          "indices": 41,
          "material": 10,
          "mode": 4
        }
      ]
    }
  ],
  "nodes": [
    {
      "children": [
        1
      ],
      "matrix": [
        1.0,
        0.0,
        0.0,
        0.0,
        0.0,
        2.220446049250313e-16,
        -1.0,
        0.0,
        0.0,
        1.0,
        2.220446049250313e-16,
        0.0,
        0.0,
        0.0,
        0.0,
        1.0
      ],
      "name": "Sketchfab_model"
    },
    {
      "children": [
        2,
        3,
        4,
        5,
        6,
        7,
        8,
        9,
        10,
        11,
        12,
        13
      ],
      "name": "Collada visual scene group"
    },
    {
      "mesh": 0,
      "name": "Material2"
    },
    {
      "mesh": 1,
      "name": "Material2"
    },
    {
      "mesh": 2,
      "name": "Material2"
    },
    {
      "mesh": 3,
      "name": "Material3"
    },
    {
      "mesh": 4,
      "name": "Material2"
    },
    {
      "mesh": 5,
      "name": "Material2"
    },
    {
      "mesh": 6,
      "name": "Material2"
    },
    {
      "mesh": 7,
      "name": "Material2"
    },
    {
      "mesh": 8,
      "name": "Material2"
    },
    {
      "mesh": 9,
      "name": "Material3"
    },
    {
      "mesh": 10,
      "name": "Material2"
    },
    {
      "children": [
        14
      ],
      "name": "SketchUp"
    },
    {
      "children": [
        15
      ],
      "matrix": [
        0.324806,
        -0.9457807,
        0.0,
        0.0,
        0.102683,
        0.03526404,
        0.9940888,
        0.0,
        -0.94019,
        -0.322886,
        0.1085695,
        0.0,
        -355.8521,
        -7.787489,
        95.32786,
        1.0
      ],
      "name": "skp_camera_Last_Saved_SketchUp_View"
    },
    {
      "name": "ID1"
    }
  ],
  "samplers": [
    {
      "magFilter": 9729,
      "minFilter": 9987,
      "wrapS": 10497,
      "wrapT": 10497
    }
  ],
  "scene": 0,
  "scenes": [
    {
      "name": "Sketchfab_Scene",
      "nodes": [
        0
      ]
    }
  ],
  "textures": [
    {
      "sampler": 0,
      "source": 0
    },
    {
      "sampler": 0,
      "source": 1
    },
    {
      "sampler": 0,
      "source": 2
    },
    {
      "sampler": 0,
      "source": 3
    },
    {
      "sampler": 0,
      "source": 4
    },
    {
      "sampler": 0,
      "source": 5
    },
    {
      "sampler": 0,
      "source": 6
    },
    {
      "sampler": 0,
      "source": 7
    },
    {
      "sampler": 0,
      "source": 8
    },
    {
      "sampler": 0,
      "source": 9
    },
    {
      "sampler": 0,
      "source": 10
    },
    {
      "sampler": 0,
      "source": 11
    },
    {
      "sampler": 0,
      "source": 12
    },
    {
      "sampler": 0,
      "source": 13
    }
  ]
}
