{
  "accessors": [
    {
      "bufferView": 2,
      "componentType": 5126,
      "count": 65532,
      "max": [
        9.48698902130127,
        11.506757736206055,
        15.347236633300781
      ],
      "min": [
        -12.975178718566895,
        -16.856027603149414,
        0.3580493927001953
      ],
      "type": "VEC3"
    },
    {
      "bufferView": 2,
      "byteOffset": 786384,
      "componentType": 5126,
      "count": 65532,
      "max": [
        0.9999791979789734,
        0.9999886751174927,
        1.0
      ],
      "min": [
        -0.9999992847442627,
        -0.9999927878379822,
        -1.0
      ],
      "type": "VEC3"
    },
    {
      "bufferView": 1,
      "componentType": 5126,
      "count": 65532,
      "max": [
        0.9996860027313232,
        0.9998779892921448
      ],
      "min": [
        0.00012199999764561653,
        0.0001849999971454963
      ],
      "type": "VEC2"
    },
    {
      "bufferView": 0,
      "componentType": 5125,
      "count": 258972,
      "type": "SCALAR"
    },
    {
      "bufferView": 2,
      "byteOffset": 1572768,
      "componentType": 5126,
      "count": 65532,
      "max": [
        7.948892593383789,
        10.705831527709961,
        13.363493919372559
      ],
      "min": [
        -10.36842155456543,
        -11.761246681213379,
        0.3580622673034668
      ],
      "type": "VEC3"
    },
    {
      "bufferView": 2,
      "byteOffset": 2359152,
      "componentType": 5126,
      "count": 65532,
      "max": [
        0.9999954104423523,
        0.9999950528144836,
        1.0
      ],
      "min": [
        -0.9999984502792358,
        -0.9999917149543762,
        -1.0
      ],
      "type": "VEC3"
    },
    {
      "bufferView": 1,
      "byteOffset": 524256,
      "componentType": 5126,
      "count": 65532,
      "max": [
        0.9997529983520508,
        0.9998779892921448
      ],
      "min": [
        0.00012199999764561653,
        0.00029600001289509237
      ],
      "type": "VEC2"
    },
    {
      "bufferView": 0,
      "byteOffset": 1035888,
      "componentType": 5125,
      "count": 291882,
      "type": "SCALAR"
    },
    {
      "bufferView": 2,
      "byteOffset": 3145536,
      "componentType": 5126,
      "count": 65532,
      "max": [
        7.936615943908691,
        10.555105209350586,
        13.191916465759277
      ],
      "min": [
        -10.368393898010254,
        -13.450695037841797,
        0.3580622673034668
      ],
      "type": "VEC3"
    },
    {
      "bufferView": 2,
      "byteOffset": 3931920,
      "componentType": 5126,
      "count": 65532,
      "max": [
        0.9999874234199524,
        0.9999914765357971,
        1.0
      ],
      "min": [
        -0.9999955892562866,
        -0.9999681711196899,
        -1.0
      ],
      "type": "VEC3"
    },
    {
      "bufferView": 1,
      "byteOffset": 1048512,
      "componentType": 5126,
      "count": 65532,
      "max": [
        0.9997979998588562,
        0.9998779892921448
      ],
      "min": [
        0.00012199999764561653,
        0.00018899999849963933
      ],
      "type": "VEC2"
    },
    {
      "bufferView": 0,
      "byteOffset": 2203416,
      "componentType": 5125,
      "count": 277668,
      "type": "SCALAR"
    },
    {
      "bufferView": 2,
      "byteOffset": 4718304,
      "componentType": 5126,
      "count": 65532,
      "max": [
        9.042536735534668,
        10.61681079864502,
        13.230191230773926
      ],
      "min": [
        -10.368393898010254,
        -11.647082328796387,
        0.3580622673034668
      ],
      "type": "VEC3"
    },
    {
      "bufferView": 2,
      "byteOffset": 5504688,
      "componentType": 5126,
      "count": 65532,
      "max": [
        0.9999948143959045,
        0.999996542930603,
        1.0
      ],
      "min": [
        -0.9999992847442627,
        -0.9999902844429016,
        -1.0
      ],
      "type": "VEC3"
    },
    {
      "bufferView": 1,
      "byteOffset": 1572768,
      "componentType": 5126,
      "count": 65532,
      "max": [
        0.9996939897537231,
        0.9998779892921448
      ],
      "min": [
        0.00012199999764561653,
        0.00025499999173916876
      ],
      "type": "VEC2"
    },
    {
      "bufferView": 0,
      "byteOffset": 3314088,
      "componentType": 5125,
      "count": 261804,
      "type": "SCALAR"
    },
    {
      "bufferView": 2,
      "byteOffset": 6291072,
      "componentType": 5126,
      "count": 65532,
      "max": [
        8.730067253112793,
        10.706684112548828,
        13.159446716308594
      ],
      "min": [
        -10.23748779296875,
        -14.090901374816895,
        0.3580622673034668
      ],
      "type": "VEC3"
    },
    {
      "bufferView": 2,
      "byteOffset": 7077456,
      "componentType": 5126,
      "count": 65532,
      "max": [
        0.9999856352806091,
        0.9999882578849792,
        0.9999998807907104
      ],
      "min": [
        -0.9999846816062927,
        -0.9999904632568359,
        -1.0
      ],
      "type": "VEC3"
    },
    {
      "bufferView": 1,
      "byteOffset": 2097024,
      "componentType": 5126,
      "count": 65532,
      "max": [
        0.9997950196266174,
        0.9998779892921448
      ],
      "min": [
        0.00012199999764561653,
        0.00019999999494757503
      ],
      "type": "VEC2"
    },
    {
      "bufferView": 0,
      "byteOffset": 4361304,
      "componentType": 5125,
      "count": 245916,
      "type": "SCALAR"
    },
    {
      "bufferView": 2,
      "byteOffset": 7863840,
      "componentType": 5126,
      "count": 65532,
      "max": [
        7.936615943908691,
        11.506756782531738,
        14.089587211608887
      ],
      "min": [
        -10.375445365905762,
        -14.285205841064453,
        0.3580622673034668
      ],
      "type": "VEC3"
    },
    {
      "bufferView": 2,
      "byteOffset": 8650224,
      "componentType": 5126,
      "count": 65532,
      "max": [
        0.9999992251396179,
        0.9999985694885254,
        1.0
      ],
      "min": [
        -0.9999820590019226,
        -0.9999818205833435,
        -1.0
      ],
      "type": "VEC3"
    },
    {
      "bufferView": 1,
      "byteOffset": 2621280,
      "componentType": 5126,
      "count": 65532,
      "max": [
        0.9996230006217957,
        0.9998779892921448
      ],
      "min": [
        0.00012199999764561653,
        0.00022499999613501132
      ],
      "type": "VEC2"
    },
    {
      "bufferView": 0,
      "byteOffset": 5344968,
      "componentType": 5125,
      "count": 238341,
      "type": "SCALAR"
    },
    {
      "bufferView": 2,
      "byteOffset": 9436608,
      "componentType": 5126,
      "count": 65534,
      "max": [
        8.341981887817383,
        10.453960418701172,
        14.131429672241211
      ],
      "min": [
        -10.368393898010254,
        -11.62960433959961,
        0.3580622673034668
      ],
      "type": "VEC3"
    },
    {
      "bufferView": 2,
      "byteOffset": 10223016,
      "componentType": 5126,
      "count": 65534,
      "max": [
        0.9999940395355225,
        0.999931275844574,
        1.0
      ],
      "min": [
        -0.9999936819076538,
        -0.999999463558197,
        -1.0
      ],
      "type": "VEC3"
    },
    {
      "bufferView": 1,
      "byteOffset": 3145536,
      "componentType": 5126,
      "count": 65534,
      "max": [
        0.9997559785842896,
        0.9998779892921448
      ],
      "min": [
        0.00012199999764561653,
        0.000195999993593432
      ],
      "type": "VEC2"
    },
    {
      "bufferView": 0,
      "byteOffset": 6298332,
      "componentType": 5125,
      "count": 218769,
      "type": "SCALAR"
    },
    {
      "bufferView": 2,
      "byteOffset": 11009424,
      "componentType": 5126,
      "count": 65533,
      "max": [
        9.120647430419922,
        10.157247543334961,
        13.996800422668457
      ],
      "min": [
        -10.353203773498535,
        -11.647082328796387,
        0.3580622673034668
      ],
      "type": "VEC3"
    },
    {
      "bufferView": 2,
      "byteOffset": 11795820,
      "componentType": 5126,
      "count": 65533,
      "max": [
        0.999999463558197,
        0.9999989867210388,
        0.9999998807907104
      ],
      "min": [
        -0.9999997019767761,
        -0.9999618530273438,
        -1.0
      ],
      "type": "VEC3"
    },
    {
      "bufferView": 1,
      "byteOffset": 3669808,
      "componentType": 5126,
      "count": 65533,
      "max": [
        0.999796986579895,
        0.9998779892921448
      ],
      "min": [
        0.00012199999764561653,
        0.0002010000025620684
      ],
      "type": "VEC2"
    },
    {
      "bufferView": 0,
      "byteOffset": 7173408,
      "componentType": 5125,
      "count": 218433,
      "type": "SCALAR"
    },
    {
      "bufferView": 2,
      "byteOffset": 12582216,
      "componentType": 5126,
      "count": 65532,
      "max": [
        8.455294609069824,
        10.543370246887207,
        14.867682456970215
      ],
      "min": [
        -10.353203773498535,
        -14.285205841064453,
        0.3580622673034668
      ],
      "type": "VEC3"
    },
    {
      "bufferView": 2,
      "byteOffset": 13368600,
      "componentType": 5126,
      "count": 65532,
      "max": [
        0.9999659061431885,
        0.9999938011169434,
        0.999999463558197
      ],
      "min": [
        -0.9999984502792358,
        -0.9999927878379822,
        -1.0
      ],
      "type": "VEC3"
    },
    {
      "bufferView": 1,
      "byteOffset": 4194072,
      "componentType": 5126,
      "count": 65532,
      "max": [
        0.9997869729995728,
        0.9998779892921448
      ],
      "min": [
        0.00012199999764561653,
        0.00026199998683296144
      ],
      "type": "VEC2"
    },
    {
      "bufferView": 0,
      "byteOffset": 8047140,
      "componentType": 5125,
      "count": 211164,
      "type": "SCALAR"
    },
    {
      "bufferView": 2,
      "byteOffset": 14154984,
      "componentType": 5126,
      "count": 65532,
      "max": [
        8.445341110229492,
        10.027470588684082,
        14.861722946166992
      ],
      "min": [
        -10.331915855407715,
        -10.288036346435547,
        0.3580622673034668
      ],
      "type": "VEC3"
    },
    {
      "bufferView": 2,
      "byteOffset": 14941368,
      "componentType": 5126,
      "count": 65532,
      "max": [
        0.9999935626983643,
        0.9999906420707703,
        0.9999996423721313
      ],
      "min": [
        -0.9999982118606567,
        -0.9999772906303406,
        -1.0
      ],
      "type": "VEC3"
    },
    {
      "bufferView": 1,
      "byteOffset": 4718328,
      "componentType": 5126,
      "count": 65532,
      "max": [
        0.9998160004615784,
        0.9998779892921448
      ],
      "min": [
        0.00012199999764561653,
        0.00018400000408291817
      ],
      "type": "VEC2"
    },
    {
      "bufferView": 0,
      "byteOffset": 8891796,
      "componentType": 5125,
      "count": 219111,
      "type": "SCALAR"
    },
    {
      "bufferView": 2,
      "byteOffset": 15727752,
      "componentType": 5126,
      "count": 65533,
      "max": [
        7.718910217285156,
        10.582326889038086,
        14.935647010803223
      ],
      "min": [
        -9.880218505859375,
        -14.24783706665039,
        1.0796046257019043
      ],
      "type": "VEC3"
    },
    {
      "bufferView": 2,
      "byteOffset": 16514148,
      "componentType": 5126,
      "count": 65533,
      "max": [
        0.9999930262565613,
        0.9999938011169434,
        0.9999939203262329
      ],
      "min": [
        -0.9999932050704956,
        -0.9999831318855286,
        -0.9999996423721313
      ],
      "type": "VEC3"
    },
    {
      "bufferView": 1,
      "byteOffset": 5242584,
      "componentType": 5126,
      "count": 65533,
      "max": [
        0.9997590184211731,
        0.9998779892921448
      ],
      "min": [
        0.00012199999764561653,
        0.0001939999929163605
      ],
      "type": "VEC2"
    },
    {
      "bufferView": 0,
      "byteOffset": 9768240,
      "componentType": 5125,
      "count": 205167,
      "type": "SCALAR"
    },
    {
      "bufferView": 2,
      "byteOffset": 17300544,
      "componentType": 5126,
      "count": 65532,
      "max": [
        8.417901992797852,
        10.586606979370117,
        14.910557746887207
      ],
      "min": [
        -10.364277839660645,
        -14.255317687988281,
        0.3580622673034668
      ],
      "type": "VEC3"
    },
    {
      "bufferView": 2,
      "byteOffset": 18086928,
      "componentType": 5126,
      "count": 65532,
      "max": [
        0.9999954104423523,
        0.9999778270721436,
        0.9999998807907104
      ],
      "min": [
        -0.9999930262565613,
        -0.9999856948852539,
        -1.0
      ],
      "type": "VEC3"
    },
    {
      "bufferView": 1,
      "byteOffset": 5766848,
      "componentType": 5126,
      "count": 65532,
      "max": [
        0.9998090267181396,
        0.9998779892921448
      ],
      "min": [
        0.00012199999764561653,
        0.0001939999929163605
      ],
      "type": "VEC2"
    },
    {
      "bufferView": 0,
      "byteOffset": 10588908,
      "componentType": 5125,
      "count": 173247,
      "type": "SCALAR"
    },
    {
      "bufferView": 2,
      "byteOffset": 18873312,
      "componentType": 5126,
      "count": 65532,
      "max": [
        8.925848960876465,
        10.582326889038086,
        14.903555870056152
      ],
      "min": [
        -10.312674522399902,
        -14.286179542541504,
        0.3580622673034668
      ],
      "type": "VEC3"
    },
    {
      "bufferView": 2,
      "byteOffset": 19659696,
      "componentType": 5126,
      "count": 65532,
      "max": [
        0.9999948143959045,
        0.9999973177909851,
        0.9999998211860657
      ],
      "min": [
        -0.9999960660934448,
        -0.9999994039535522,
        -1.0
      ],
      "type": "VEC3"
    },
    {
      "bufferView": 1,
      "byteOffset": 6291104,
      "componentType": 5126,
      "count": 65532,
      "max": [
        0.9998120069503784,
        0.9998779892921448
      ],
      "min": [
        0.00012199999764561653,
        0.00018600000475998968
      ],
      "type": "VEC2"
    },
    {
      "bufferView": 0,
      "byteOffset": 11281896,
      "componentType": 5125,
      "count": 149193,
      "type": "SCALAR"
    },
    {
      "bufferView": 2,
      "byteOffset": 20446080,
      "componentType": 5126,
      "count": 15363,
      "max": [
        8.9644193649292,
        10.695876121520996,
        13.925902366638184
      ],
      "min": [
        -9.889379501342773,
        -11.42253589630127,
        0.6954574584960938
      ],
      "type": "VEC3"
    },
    {
      "bufferView": 2,
      "byteOffset": 20630436,
      "componentType": 5126,
      "count": 15363,
      "max": [
        0.9997785091400146,
        0.9999331831932068,
        0.9999998807907104
      ],
      "min": [
        -0.9999277591705322,
        -0.9998029470443726,
        -0.9999904632568359
      ],
      "type": "VEC3"
    },
    {
      "bufferView": 1,
      "byteOffset": 6815360,
      "componentType": 5126,
      "count": 15363,
      "max": [
        0.999705970287323,
        0.9998779892921448
      ],
      "min": [
        0.00012199999764561653,
        0.00020900000527035445
      ],
      "type": "VEC2"
    },
    {
      "bufferView": 0,
      "byteOffset": 11878668,
      "componentType": 5125,
      "count": 30333,
      "type": "SCALAR"
    }
  ],
  "asset": {
    "extras": {
      "author": "The Hallwyl Museum (Hallwylska museet) (https://sketchfab.com/TheHallwylMuseum)",
      "license": "CC-BY-4.0 (http://creativecommons.org/licenses/by/4.0/)",
      "source": "https://sketchfab.com/3d-models/the-billiards-room-79615d823a9149069dcd06c20bc9707f",
      "title": "The Billiards Room"
    },
    "generator": "Sketchfab-12.65.0",
    "version": "2.0"
  },
  "bufferViews": [
    {
      "buffer": 0,
      "byteLength": 12000000,
      "name": "floatBufferViews",
      "target": 34963
    },
    {
      "buffer": 0,
      "byteLength": 6938264,
      "byteOffset": 12000000,
      "byteStride": 8,
      "name": "floatBufferViews",
      "target": 34962
    },
    {
      "buffer": 0,
      "byteLength": 20814792,
      "byteOffset": 18938264,
      "byteStride": 12,
      "name": "floatBufferViews",
      "target": 34962
    }
  ],
  "buffers": [
    {
      "byteLength": 39753056,
      "uri": "scene.bin"
    }
  ],
  "extensionsUsed": [
    "KHR_materials_unlit"
  ],
  "images": [
    {
      "uri": "textures/model_Material_u1_v1_baseColor.jpeg"
    }
  ],
  "materials": [
    {
      "extensions": {
        "KHR_materials_unlit": {}
      },
      "name": "model_Material_u1_v1",
      "pbrMetallicRoughness": {
        "baseColorTexture": {
          "index": 0
        },
        "metallicFactor": 0.0
      }
    }
  ],
  "meshes": [
    {
      "name": "Object_0",
      "primitives": [
        {
          "attributes": {
            "NORMAL": 1,
            "POSITION": 0,
            "TEXCOORD_0": 2
          },
          "indices": 3,
          "material": 0,
          "mode": 4
        }
      ]
    },
    {
      "name": "Object_1",
      "primitives": [
        {
          "attributes": {
            "NORMAL": 5,
            "POSITION": 4,
            "TEXCOORD_0": 6
          },
          "indices": 7,
          "material": 0,
          "mode": 4
        }
      ]
    },
    {
      "name": "Object_2",
      "primitives": [
        {
          "attributes": {
            "NORMAL": 9,
            "POSITION": 8,
            "TEXCOORD_0": 10
          },
          "indices": 11,
          "material": 0,
          "mode": 4
        }
      ]
    },
    {
      "name": "Object_3",
      "primitives": [
        {
          "attributes": {
            "NORMAL": 13,
            "POSITION": 12,
            "TEXCOORD_0": 14
          },
          "indices": 15,
          "material": 0,
          "mode": 4
        }
      ]
    },
    {
      "name": "Object_4",
      "primitives": [
        {
          "attributes": {
            "NORMAL": 17,
            "POSITION": 16,
            "TEXCOORD_0": 18
          },
          "indices": 19,
          "material": 0,
          "mode": 4
        }
      ]
    },
    {
      "name": "Object_5",
      "primitives": [
        {
          "attributes": {
            "NORMAL": 21,
            "POSITION": 20,
            "TEXCOORD_0": 22
          },
          "indices": 23,
          "material": 0,
          "mode": 4
        }
      ]
    },
    {
      "name": "Object_6",
      "primitives": [
        {
          "attributes": {
            "NORMAL": 25,
            "POSITION": 24,
            "TEXCOORD_0": 26
          },
          "indices": 27,
          "material": 0,
          "mode": 4
        }
      ]
    },
    {
      "name": "Object_7",
      "primitives": [
        {
          "attributes": {
            "NORMAL": 29,
            "POSITION": 28,
            "TEXCOORD_0": 30
          },
          "indices": 31,
          "material": 0,
          "mode": 4
        }
      ]
    },
    {
      "name": "Object_8",
      "primitives": [
        {
          "attributes": {
            "NORMAL": 33,
            "POSITION": 32,
            "TEXCOORD_0": 34
          },
          "indices": 35,
          "material": 0,
          "mode": 4
        }
      ]
    },
    {
      "name": "Object_9",
      "primitives": [
        {
          "attributes": {
            "NORMAL": 37,
            "POSITION": 36,
            "TEXCOORD_0": 38
          },
          "indices": 39,
          "material": 0,
          "mode": 4
        }
      ]
    },
    {
      "name": "Object_10",
      "primitives": [
        {
          "attributes": {
            "NORMAL": 41,
            "POSITION": 40,
            "TEXCOORD_0": 42
          },
          "indices": 43,
          "material": 0,
          "mode": 4
        }
      ]
    },
    {
      "name": "Object_11",
      "primitives": [
        {
          "attributes": {
            "NORMAL": 45,
            "POSITION": 44,
            "TEXCOORD_0": 46
          },
          "indices": 47,
          "material": 0,
          "mode": 4
        }
      ]
    },
    {
      "name": "Object_12",
      "primitives": [
        {
          "attributes": {
            "NORMAL": 49,
            "POSITION": 48,
            "TEXCOORD_0": 50
          },
          "indices": 51,
          "material": 0,
          "mode": 4
        }
      ]
    },
    {
      "name": "Object_13",
      "primitives": [
        {
          "attributes": {
            "NORMAL": 53,
            "POSITION": 52,
            "TEXCOORD_0": 54
          },
          "indices": 55,
          "material": 0,
          "mode": 4
        }
      ]
    }
  ],
  "nodes": [
    {
      "children": [
        1
      ],
      "matrix": [
        1.0,
        0.0,
        0.0,
        0.0,
        0.0,
        2.220446049250313e-16,
        -1.0,
        0.0,
        0.0,
        1.0,
        2.220446049250313e-16,
        0.0,
        0.0,
        0.0,
        0.0,
        1.0
      ],
      "name": "Sketchfab_model"
    },
    {
      "children": [
        2,
        3,
        4,
        5,
        6,
        7,
        8,
        9,
        10,
        11,
        12,
        13,
        14,
        15
      ],
      "name": "model.obj.cleaner.materialmerger.gles"
    },
    {
      "mesh": 0,
      "name": "Object_2"
    },
    {
      "mesh": 1,
      "name": "Object_3"
    },
    {
      "mesh": 2,
      "name": "Object_4"
    },
    {
      "mesh": 3,
      "name": "Object_5"
    },
    {
      "mesh": 4,
      "name": "Object_6"
    },
    {
      "mesh": 5,
      "name": "Object_7"
    },
    {
      "mesh": 6,
      "name": "Object_8"
    },
    {
      "mesh": 7,
      "name": "Object_9"
    },
    {
      "mesh": 8,
      "name": "Object_10"
    },
    {
      "mesh": 9,
      "name": "Object_11"
    },
    {
      "mesh": 10,
      "name": "Object_12"
    },
    {
      "mesh": 11,
      "name": "Object_13"
    },
    {
      "mesh": 12,
      "name": "Object_14"
    },
    {
      "mesh": 13,
      "name": "Object_15"
    }
  ],
  "samplers": [
    {
      "magFilter": 9729,
      "minFilter": 9987,
      "wrapS": 10497,
      "wrapT": 10497
    }
  ],
  "scene": 0,
  "scenes": [
    {
      "name": "Sketchfab_Scene",
      "nodes": [
        0
      ]
    }
  ],
  "textures": [
    {
      "sampler": 0,
      "source": 0
    }
  ]
}
